<svg width="102" height="104" viewBox="0 0 102 104" fill="none" xmlns="http://www.w3.org/2000/svg">
<path d="M44.0702 8.56303C45.4426 7.70811 46.8748 6.9126 48.4765 6.58252C50.2444 6.22273 52.0289 6.46369 53.7934 6.75086C53.697 6.55611 53.1288 5.66819 53.4046 5.58897C53.5408 5.54936 53.9861 5.79032 54.1257 5.83983L54.5045 5.97186L54.8036 6.07749C54.9133 6.15341 54.9797 6.1105 55.003 5.94546C55.3353 5.59227 55.548 4.98491 55.8138 4.5657C56.0437 4.18856 56.3243 3.8443 56.6479 3.54244C57.2917 2.95142 58.1445 2.63701 59.0205 2.66772C59.8613 2.70403 60.9512 3.17605 61.3699 3.95175C61.4593 4.14718 61.5101 4.35785 61.5195 4.5723C61.5427 4.75715 61.4962 5.17966 61.6059 5.3282C61.6723 5.41732 61.9681 5.48994 62.0711 5.55596C62.3468 5.72762 62.5668 5.97462 62.7047 6.26736C62.8426 6.56009 62.8926 6.88613 62.8487 7.20638C62.7889 7.6619 62.4233 7.94907 62.1076 8.24614C61.7919 8.54322 61.7521 8.72807 61.8185 9.18028C61.8985 9.65168 61.804 10.1359 61.5527 10.5435C61.2838 10.9691 60.9177 11.3257 60.4841 11.5843C60.0505 11.843 59.5616 11.9964 59.0571 12.0322C57.9173 12.1015 56.7509 11.2631 55.9235 10.5468C55.526 10.2193 55.2094 9.80555 54.998 9.33748C54.7866 8.86942 54.686 8.35945 54.7039 7.84674C54.4148 8.20984 53.707 9.46416 53.0756 9.01524C52.4442 8.56633 53.265 7.81043 53.6206 7.57607C51.5542 6.94691 49.3378 7.00369 47.3068 7.73782C45.4311 8.48722 43.7606 9.66697 42.4319 11.1806C43.7611 10.834 44.9176 10.23 46.3099 10.1903C47.7023 10.1507 49.0415 10.6327 50.3707 11.1113C51.008 11.346 51.6685 11.5131 52.3412 11.6097C52.6794 11.6554 53.0201 11.6796 53.3614 11.6823C53.5153 11.6559 53.6727 11.6559 53.8266 11.6823C53.9031 11.7153 54.1955 11.9431 54.1955 12.0289C54.1955 12.5042 52.9128 12.6231 52.6104 12.6891C51.8972 12.8997 51.1962 13.1488 50.5102 13.4351C49.2575 13.9269 48.0412 14.4253 46.6755 14.4946C45.3097 14.564 43.8675 14.1646 42.5383 13.785C41.2091 13.4054 39.8798 12.864 38.4675 13.2766C38.1552 13.3724 37.2314 13.9005 37.1948 13.237C37.1583 12.6297 38.3944 12.5339 38.75 12.2468C38.8663 12.1543 38.9793 12.2006 38.9128 12.0322C38.6503 11.9489 38.3796 11.8936 38.1053 11.8672C37.7298 11.7979 37.3543 11.7516 36.9755 11.7153C36.2743 11.646 35.3771 11.4381 34.6893 11.613C34.0014 11.7879 33.4797 12.359 33.0012 12.8178C32.7187 13.0918 32.4429 13.3724 32.1671 13.6529C31.9677 13.8576 31.5224 14.1382 31.549 14.4484C32.1438 14.1448 32.7253 13.7586 33.4132 13.7883C34.0231 13.7563 34.6309 13.8814 35.1777 14.1514C35.4096 14.2907 35.608 14.4787 35.759 14.7022C35.9099 14.9257 36.0099 15.1793 36.0517 15.4453C36.1481 16.1055 35.6496 16.5049 35.078 16.6732C34.4526 16.8807 33.7878 16.9439 33.1341 16.858C32.4429 16.7392 31.9145 16.3035 31.2699 16.0691C29.7645 15.5146 28.5117 16.66 27.352 17.4687C28.4851 17.9044 29.5651 18.2939 30.3228 19.3007C30.6983 19.8024 30.7315 20.1226 30.2663 20.5517C29.934 20.8554 29.5385 21.4 29.0202 21.2119C28.7643 21.1161 28.6314 20.9181 28.3555 20.8554C28.0797 20.7927 27.8438 20.796 27.5813 20.7266C27.0806 20.6095 26.6212 20.3597 26.2521 20.0038C25.9198 19.6737 25.7237 19.2347 25.3249 18.9904C25.1256 18.8863 24.907 18.8236 24.6825 18.806C24.458 18.7884 24.2323 18.8163 24.019 18.8881C22.8592 19.1851 21.8723 19.9278 20.9518 20.6573C20.512 20.9701 20.0976 21.3166 19.7123 21.6938C19.3302 22.1163 19.1707 22.7468 18.7918 23.1396C18.6357 23.3013 18.7354 23.2947 18.5061 23.265C18.4595 23.265 18.3432 23.265 18.3133 23.2089C18.2402 23.1098 18.2901 23.0537 18.3133 22.9349C18.4447 22.3909 18.7148 21.8896 19.0976 21.4792C19.8093 20.6859 20.6111 19.977 21.4868 19.3667C22.5273 18.6363 23.6617 18.0479 24.8597 17.6172C25.9031 17.2145 27.0463 16.9043 27.8504 16.1055C28.1828 15.7754 28.4785 15.376 28.3456 14.8775C28.2127 14.3791 27.7508 13.8873 27.4783 13.4417C26.8469 12.3722 27.1194 11.415 27.6477 10.3554C27.9136 9.90317 28.0964 9.57308 28.6314 9.46746C29.0667 9.38824 29.7678 9.44435 30.0669 9.81735C30.366 10.1903 30.2198 10.6789 30.1865 11.0783C30.1267 11.7979 30.0769 12.5207 29.9971 13.237C29.973 13.5807 29.9152 13.9212 29.8243 14.2537C29.6873 14.513 29.576 14.7849 29.492 15.0657C29.4555 15.4783 29.8808 14.9535 30.0304 14.8181C30.3627 14.5277 30.6651 14.2339 30.9874 13.9467C31.878 13.138 32.7685 12.3491 33.4265 11.3291C34.1775 10.1639 32.5924 9.09116 32.2103 8.04479C32.0134 7.51496 31.9866 6.93756 32.1336 6.39199C32.2806 5.84642 32.5941 5.35947 33.0311 4.99811C33.2374 4.83785 33.4755 4.72267 33.7298 4.6601C33.984 4.59754 34.2487 4.58899 34.5065 4.63502C35.1478 4.80006 35.3771 5.62527 35.304 6.20292C35.2176 6.86309 34.7325 7.43084 34.4633 8.03159C34.1709 8.69176 34.1576 9.35193 34.0612 10.0517C34.8122 9.50377 35.4536 8.50031 35.8889 7.685C36.374 6.77727 36.3641 5.65828 36.6199 4.68123C36.8293 3.87913 37.3211 3.03081 38.2283 2.94169C39.0158 2.86247 39.8034 3.27177 39.933 4.08378C40.0046 4.50679 39.9767 4.94051 39.8517 5.35107C39.7266 5.76162 39.5076 6.13789 39.2119 6.45049C38.9767 6.77253 38.6556 7.0229 38.2848 7.17337C37.8352 7.25857 37.4084 7.43621 37.032 7.6949C36.6696 7.99971 36.3359 8.33669 36.0351 8.70166C35.8523 8.90961 35.6729 9.12087 35.4934 9.33212C35.314 9.54338 35.0847 9.85366 35.5665 9.616C36.3873 9.21329 37.1217 8.73467 38.0788 8.98223C38.461 9.09289 38.8112 9.29258 39.1002 9.56471C39.3892 9.83683 39.6086 10.1735 39.7403 10.5468C39.7957 10.7349 39.805 10.9334 39.7675 11.1258C39.7299 11.3181 39.6465 11.4988 39.5243 11.6526C39.4676 11.7297 39.4197 11.8127 39.3814 11.9002C39.408 12.1114 39.5575 11.9563 39.6472 11.9233C39.924 11.7868 40.1876 11.6255 40.4348 11.4414C40.7372 11.2532 41.3486 10.9957 41.4317 10.636C41.5513 10.1738 41.1924 9.54338 41.1791 9.06145C41.1323 8.01129 41.3326 6.96474 41.764 6.00487C42.2226 5.15325 42.6579 4.23232 43.3757 3.56555C44.1 2.90761 44.8984 2.33497 45.755 1.85901C47.6757 0.759829 49.8656 0.479258 52.0023 0.0435461C52.3346 -0.0224708 53.1919 -0.0917886 52.8197 0.472656C52.5506 0.87866 51.8228 1.16583 51.4174 1.4365C50.3607 2.14948 49.2874 2.84596 48.2672 3.61176C47.4061 4.24895 46.6172 4.97721 45.9145 5.78371C45.2375 6.66792 44.6214 7.59646 44.0702 8.56303ZM57.3457 10.8736C58.4722 11.24 59.4559 11.5536 60.5192 10.8175C61.0243 10.4709 61.895 9.19679 60.795 9.04495C60.4627 8.99874 59.8214 9.07136 59.6619 8.65875C59.5024 8.24614 59.9942 8.0679 60.28 8.0877C60.7777 8.1401 61.2771 8.00459 61.679 7.70811C62.0545 7.42753 62.4167 6.9093 62.0445 6.47029C61.6579 6.11896 61.1494 5.92972 60.6256 5.94216C60.2534 5.96196 59.1568 6.60232 58.871 6.19962C58.2064 5.24568 61.5693 5.28199 60.7053 4.37755C59.931 3.56225 58.8145 3.30148 57.8575 3.90884C57.405 4.17538 57.0117 4.53021 56.7011 4.9519C56.6014 5.09714 56.3189 5.52955 56.3987 5.721C56.4784 5.91245 57.2228 6.15341 57.3956 6.24913C57.9439 6.54291 58.2662 6.76076 57.8442 7.34171C57.5916 7.6916 57.1995 7.97878 57.5783 8.35507C57.9572 8.73137 58.5752 8.87661 58.4888 9.54008C58.429 10.0748 57.7246 10.5171 57.3457 10.8637V10.8736ZM48.42 1.96134C45.2465 2.52248 41.774 5.44703 41.9833 8.89311C42.8008 7.51996 43.5219 5.99827 44.5786 4.79346C45.6353 3.58865 47.0809 2.80635 48.42 1.94813V1.96134ZM42.3655 12.6957C42.6081 12.3656 43.4754 12.6033 43.8675 12.6726C44.336 12.7551 44.7813 12.8871 45.2565 12.93C46.2725 12.9927 47.2906 12.8466 48.2472 12.5009C47.9149 12.2666 47.3666 12.2468 46.9712 12.2006C46.2439 12.1235 45.5127 12.0893 44.7813 12.0982C44.0716 12.0944 43.3624 12.1352 42.6579 12.2204C42.2691 12.2732 41.661 12.3128 41.3686 12.6033C42.8108 13.4912 44.7547 13.6661 46.4129 13.6595C47.5261 13.6595 49.736 13.6595 50.4006 12.5471C49.0442 12.9361 47.669 13.2567 46.28 13.5077C45.6059 13.5927 44.9217 13.5513 44.2629 13.3856C43.6116 13.237 42.8307 13.1578 42.3655 12.6957ZM25.5875 18.3203C25.8998 18.6504 26.2155 18.9805 26.5279 19.3106C26.8315 19.6515 27.2326 19.8922 27.6776 20.0004C28.113 20.1358 29.8775 20.796 29.6715 19.7067C29.5751 19.1455 28.648 18.6735 28.1562 18.4854C27.3653 18.185 26.4249 18.3203 25.5875 18.3203ZM37.125 6.78717C37.8086 6.70535 38.4356 6.36919 38.8796 5.84643C39.2119 5.40742 39.5077 4.5624 39.2917 4.02767C39.2233 3.87152 39.1073 3.74066 38.96 3.65359C38.8127 3.56652 38.6416 3.52764 38.4709 3.54244C38.112 3.61176 37.9658 4.00126 37.8063 4.27193C37.314 5.01617 37.0763 5.89817 37.1284 6.78717H37.125ZM29.1099 14.1943C29.4887 13.3889 29.4156 12.4151 29.4688 11.5305C29.502 11.0156 29.8011 9.71172 28.8407 10.1375C28.1761 10.4247 27.9734 11.4249 28.0332 12.0586C28.1063 12.8739 28.6247 13.5704 29.1099 14.1943ZM31.5224 15.3628C32.1603 15.7904 32.9066 16.0307 33.6757 16.0559C34.1542 16.0559 35.211 15.7985 35.1412 15.1284C35.0714 14.4583 33.9981 14.4682 33.5362 14.5409C32.8163 14.6817 32.1318 14.9634 31.5224 15.3694V15.3628ZM33.483 8.64555C33.7455 8.18013 35.4768 5.20937 34.1243 5.28859C33.4597 5.3282 33.1075 6.02138 32.9613 6.60893C32.8789 6.96619 32.8832 7.3378 32.9739 7.69308C33.0646 8.04835 33.2391 8.37709 33.483 8.65215V8.64555ZM57.1563 7.03804L55.7939 6.30525C55.7955 6.55284 55.8347 6.79876 55.9102 7.03473C56.0032 7.23609 56.176 7.36482 56.0929 7.59918C56.0099 7.83354 55.734 7.86985 55.6377 8.0712C55.5595 8.33293 55.5595 8.61158 55.6377 8.8733C55.7451 9.34777 56.0025 9.77569 56.3721 10.0946C56.4252 10.1441 56.6147 10.3455 56.6745 10.3455C56.7343 10.3455 56.947 10.1045 57.0068 10.0583L57.7611 9.39814C57.3889 9.2397 56.4718 9.04165 56.3887 8.55642C56.3056 8.0712 56.9436 7.39783 57.1563 7.03804ZM44.1965 11.3918L50.0782 11.8243C48.7025 10.8373 45.3396 10.4808 44.1965 11.3918ZM35.4735 10.8373C36.2844 10.9297 37.0997 10.9793 37.9159 10.9858C38.5107 10.9858 39.1288 10.8439 38.6237 10.1672C37.7132 8.93932 36.2743 10.1936 35.4768 10.8373H35.4735ZM41.9468 10.1045L42.2193 10.2927C43.0965 8.97233 43.8808 7.57937 44.7348 6.24583C45.0811 5.67381 45.4925 5.14328 45.961 4.66473C46.1966 4.44113 46.4537 4.24102 46.7286 4.06727C46.8283 4.00126 47.5461 3.47972 47.2238 3.40711C47.1074 3.384 46.609 3.93194 46.4927 4.02436C46.2368 4.22572 45.951 4.35445 45.6852 4.5459C45.1437 4.98038 44.6923 5.5151 44.356 6.1204C43.5186 7.42974 42.7166 8.75778 41.9501 10.1045H41.9468Z" fill="white"/>
<path d="M79.6632 88.559C78.4415 89.6424 77.0194 90.4799 75.4762 91.0247C74.6741 91.302 73.8577 91.5367 73.0305 91.7278C72.1901 91.9479 71.3634 92.2169 70.5548 92.5332C70.9801 92.7643 71.4719 93.0976 71.4022 93.6489C71.3124 94.3487 70.5415 93.8601 70.176 93.6984C70.5083 95.7152 69.6509 98.2899 67.8798 99.4485C67.4644 99.7052 67.0177 99.9082 66.5505 100.053C66.1019 100.204 65.7563 100.597 65.2546 100.567C64.9223 100.548 64.1579 100.369 64.0184 100.013C63.8788 99.6564 64.2543 98.8675 64.3507 98.5011C63.3538 98.4318 62.3004 98.62 61.8019 97.5802C61.5664 97.1653 61.472 96.6861 61.5327 96.2136C61.6491 95.7119 62.0246 95.3422 62.3303 94.9494C61.443 94.6193 60.5591 94.1704 60.7053 93.0679C60.7844 92.5371 60.9811 92.0303 61.281 91.5839C61.5809 91.1376 61.9767 90.7629 62.4399 90.4867C63.4933 89.9486 64.7495 90.0807 65.876 90.2787C66.498 90.4051 67.1066 90.5896 67.6937 90.83C68.2438 91.0582 68.7198 91.4329 69.0694 91.9126C69.2422 91.3812 69.3186 91.1204 69.7606 90.7738C69.9882 91.0838 70.0977 91.464 70.0696 91.8466C71.4288 91.3482 72.8012 90.9719 74.1902 90.5593C75.5256 90.2126 76.7851 89.6239 77.9054 88.823C78.869 88.0771 79.6632 87.0043 80.371 86.0206C81.1504 84.9288 81.7287 83.7085 82.0791 82.4161C81.2483 83.1786 80.4541 84.0203 79.4738 84.5947C78.4569 85.1332 77.3748 85.5403 76.2538 85.8061C75.0442 86.1527 73.8247 86.4662 72.625 86.8656C72.0621 87.0492 71.525 87.3032 71.0267 87.6215C70.6246 87.8823 70.3621 88.2058 69.9201 88.4434C69.8104 88.1134 69.6742 87.9648 69.7971 87.605C69.9201 87.2452 70.1294 86.8062 70.2757 86.4101C70.5842 85.6097 70.9472 84.8311 71.3623 84.0797C72.203 82.6076 73.3561 81.6965 74.8315 80.901C75.2032 80.6795 75.5948 80.4928 76.0013 80.3432C76.41 80.2177 76.852 80.1913 77.2707 80.0956C78.1413 79.8976 79.0086 79.6896 79.8925 79.5378C80.3145 79.4652 80.7399 79.4024 81.1619 79.3298C81.584 79.2572 82.0691 79.244 82.3915 78.9997C82.7969 78.6994 82.6905 77.7883 83.4116 77.9897C84.1327 78.191 83.6874 79.2539 83.5778 79.7754C83.4572 80.1298 83.3758 80.4961 83.3352 80.868C83.3352 81.1585 83.6177 81.5282 83.6675 81.8418C83.8104 82.6307 83.8636 83.4361 83.9998 84.2283C84.1668 85.0763 84.1982 85.9452 84.0928 86.8029C83.9107 88.3829 83.4197 89.9123 82.6473 91.3053C81.8664 92.6256 80.7067 93.6159 79.753 94.7943C79.4626 95.0962 79.2365 95.4532 79.0884 95.8439C79.0086 96.1113 78.9322 96.3688 78.5799 96.3094C77.9153 96.1938 78.4603 94.6358 78.5334 94.2232C78.7162 93.2066 78.8923 92.1932 79.0717 91.1765C79.1548 90.6847 79.2445 90.1863 79.3309 89.7044C79.4207 89.305 79.5835 88.9584 79.6632 88.559ZM68.9033 96.1509C68.3981 96.1509 67.6571 96.3028 67.1819 96.0915C66.7067 95.8802 66.7499 95.4313 66.7865 95.0088C66.8164 94.7084 66.9859 94.2034 66.7665 93.936C66.4974 93.606 65.8228 93.6456 65.4639 93.4838C64.2477 92.9293 66.4043 90.8432 64.7129 90.8432C64.0483 90.8432 63.3039 90.7672 62.6958 91.094C62.3961 91.2539 62.1318 91.4718 61.9183 91.7349C61.7048 91.9979 61.5466 92.3008 61.453 92.6256C61.021 94.3619 63.2773 93.7743 64.0483 93.1174C64.1978 92.9887 64.2012 92.926 64.3573 92.9689C64.4537 92.9953 64.5833 93.2033 64.6298 93.2825C64.7016 93.3871 64.7428 93.5095 64.7486 93.636C64.7545 93.7624 64.7249 93.888 64.663 93.9988C64.354 94.517 63.4335 94.7051 62.9683 95.0913C62.5629 95.4214 62.1375 95.9165 62.1874 96.4744C62.1964 96.6007 62.2304 96.7241 62.2874 96.8373C62.3444 96.9506 62.4234 97.0516 62.5197 97.1346C62.852 97.4118 63.1644 97.2963 63.5498 97.2402C64.2152 97.1704 64.8543 96.9441 65.4141 96.58C65.6101 96.448 65.9025 96.0948 66.1617 96.1707C66.4209 96.2466 66.5406 96.7484 66.494 96.9827C66.3412 97.6264 65.5437 97.94 65.1648 98.4351C65.0485 98.5935 64.7229 99.1382 64.8525 99.3395C64.9821 99.5409 65.4539 99.2933 65.6733 99.2075C66.4339 98.9345 67.1478 98.5471 67.79 98.0588C68.3523 97.5605 68.7419 96.8986 68.9033 96.1674V96.1509ZM82.1954 80.6138C81.5128 81.2513 80.7706 81.8227 79.9789 82.3204C79.2691 82.7076 78.5329 83.0451 77.7757 83.3304C77.0679 83.6143 76.3635 84.0137 75.6125 84.0896C75.207 84.1325 74.8415 84.5022 74.5258 84.7498C74.147 85.0403 73.7748 85.3374 73.396 85.6278C75.2066 85.4023 76.9737 84.9118 78.6397 84.1722C79.3575 83.8326 80.0195 83.3875 80.6037 82.8518C81.2355 82.1876 81.7722 81.4401 82.1987 80.6304L82.1954 80.6138ZM71.4454 85.8226L71.5883 85.9645C73.8698 83.5943 76.6418 81.744 79.7131 80.5412C77.9552 80.8713 76.1873 81.2509 74.6023 82.1157C73.0172 82.9805 72.3326 84.3537 71.4454 85.8226ZM67.6172 95.164C68.0193 95.1211 68.8534 95.2036 69.1724 94.9164C69.4914 94.6292 69.0295 93.9559 68.9099 93.6489C68.5776 92.7808 68.0725 91.7707 67.1553 91.3911C66.9468 91.2956 66.7203 91.245 66.4907 91.2426C66.2149 91.2624 66.3113 91.226 66.1817 91.4307C66.1151 91.5841 66.0672 91.7447 66.0388 91.9093C65.9158 92.3252 65.547 92.8996 66.1285 93.0382C66.4608 93.1141 66.8297 93.0184 67.1587 93.1009C67.2909 93.1276 67.4112 93.1954 67.502 93.2945C67.5928 93.3936 67.6495 93.5189 67.6638 93.6522C67.79 94.1407 67.5441 94.649 67.6239 95.1541L67.6172 95.164ZM80.4408 92.6718C81.3208 91.8561 82.0212 90.8682 82.4978 89.7704C82.6905 89.3314 83.7173 86.6676 83.2521 86.4695L80.4408 92.6718ZM82.9231 82.8947C82.7105 83.5549 82.4479 84.2151 82.2918 84.8752C82.2482 85.0014 82.2323 85.1353 82.2452 85.268C82.2751 85.4034 82.4346 85.4364 82.4579 85.5981C82.4812 85.7599 82.3051 85.9579 82.2187 86.1064C81.8607 86.7637 81.5477 87.4441 81.2816 88.1431C81.1154 88.5491 80.9492 88.9551 80.7964 89.3644C80.7 89.6284 80.4142 90.1896 80.4641 90.4603C80.5206 90.8663 80.7964 90.1302 80.8562 90.0114C81.0157 89.6549 81.1719 89.2951 81.3314 88.9386C81.6136 88.2395 81.9342 87.5563 82.2918 86.892C82.6081 86.2725 82.8373 85.6128 82.973 84.9314C83.1524 84.2085 83.3452 83.5483 82.9298 82.8848L82.9231 82.8947ZM74.8847 83.8421C74.908 83.9015 74.9312 83.9609 74.9512 84.0203C76.0644 83.5318 77.1909 83.0697 78.2742 82.5481C78.8087 82.2943 79.3279 82.0099 79.8294 81.6965L80.5305 81.2509C80.6136 81.1981 80.8296 81.1123 80.8828 81.0297C81.0024 80.8383 80.9094 80.8284 80.6967 80.8845C80.2168 81.0701 79.7514 81.2907 79.3044 81.5447C78.8059 81.7658 78.3074 81.9837 77.809 82.2048C76.7819 82.6527 75.8023 83.2012 74.8847 83.8421ZM79.6965 92.1536L79.7762 92.2262C79.9856 91.7773 80.1983 91.3284 80.4076 90.8828C80.3046 90.8828 80.0753 90.8168 79.9989 90.8597C79.9224 90.9026 79.8925 91.0511 79.8593 91.2327C79.8061 91.5529 79.753 91.8598 79.6965 92.1668V92.1536Z" fill="white"/>
<path d="M12.1856 71.0282C12.4316 70.9952 13.1294 70.7773 13.2091 71.1272C13.2889 71.4771 12.4415 71.6917 12.2122 71.7874C13.1427 73.0186 14.2061 74.2036 14.8707 75.5999C15.5619 77.0555 16.15 78.5706 16.798 80.0329C17.4128 81.4292 18.1007 82.7792 19.1806 83.885C19.6957 84.4131 20.2972 84.8422 20.8422 85.3341C21.4184 85.8997 22.0813 86.3709 22.8061 86.7303C22.0152 85.8226 21.0548 85.0964 20.3038 84.1359C19.5759 83.2157 18.983 82.1977 18.5426 81.1123C18.0608 79.8976 18.0608 78.6598 17.7783 77.4021C17.4959 76.1445 17.1802 74.8902 16.8346 73.6524C16.7572 73.3504 16.6458 73.0581 16.5023 72.781C16.3959 72.5862 16.1268 72.3353 16.1467 72.1043C16.1999 71.4936 16.8412 71.794 17.0639 72.0779C17.7717 72.9856 18.7952 73.5467 19.7223 74.1904C21.5071 75.359 22.8248 77.1103 23.4474 79.1417C23.8836 80.5465 24.1731 81.9922 24.3114 83.4559C24.3613 84.2151 24.4377 84.971 24.5041 85.7236C24.5151 85.8696 24.5441 86.0137 24.5905 86.1527C24.6504 86.3144 24.7434 86.2946 24.8132 86.4365C24.9528 86.727 24.8597 86.869 24.6371 87.1264L26.0892 87.8724C25.8633 88.1563 26.9333 88.4336 27.0861 88.4666C27.6079 88.5755 28.3057 88.5854 28.7477 88.8693C29.0168 89.0343 29.286 89.4667 28.8374 89.5723C28.3888 89.678 27.6909 89.3347 27.2589 89.2225C26.7234 89.0388 26.1636 88.9342 25.5974 88.9122C25.0015 88.9492 24.4106 89.0432 23.8329 89.1927C23.3245 89.3116 22.8061 89.612 22.2877 89.612C21.7029 89.5621 21.1223 89.4728 20.5497 89.3446C19.3767 89.1795 18.1206 89.1201 17.0905 88.4996C16.1268 87.9186 14.9836 87.3179 14.2027 86.4993C13.4883 85.7533 13.1194 84.7795 12.5844 83.9147C12.3114 83.536 11.9971 83.1884 11.6473 82.8782C11.3782 82.601 11.4479 82.0266 11.9331 82.0629C12.1524 82.0629 12.4216 82.3171 12.5977 82.4227C12.8735 82.5878 13.1527 82.7528 13.4451 82.8881C14.0466 83.1786 14.6813 83.4163 15.3027 83.6572C15.9241 83.8982 16.6319 84.1689 17.3197 84.3966C17.888 84.5881 18.7121 85.0172 19.3136 84.9677C18.7759 84.4854 18.2853 83.9538 17.8481 83.38C17.4194 82.7198 17.0041 82.0596 16.6219 81.3995C15.841 80.0098 15.3392 78.498 14.6281 77.0687C13.917 75.6395 13.269 74.2135 12.1757 73.0813C11.9996 72.8998 11.8434 72.7512 11.5576 72.8272C11.2718 72.9031 11.1921 73.2134 10.8598 73.1572C10.3015 73.0747 10.6205 72.1241 10.6903 71.7742C9.97251 71.8798 9.29128 72.1769 8.55025 72.1043C7.85756 72.0046 7.20761 71.7116 6.67605 71.2593C5.46979 70.2954 4.38316 68.7902 4.45959 67.1695C4.49282 66.5093 5.07435 66.3443 5.66253 66.4004C5.73896 66.4004 6.10449 66.5093 6.17095 66.4631C6.23741 66.4169 6.27064 66.0472 6.30055 65.9581C6.36831 65.7074 6.46886 65.4666 6.59963 65.2418C7.19445 64.2912 8.3409 64.6939 9.18162 65.0603C9.51393 64.2285 10.0024 63.3108 11.0458 63.2943C12.0893 63.2778 12.6509 64.4166 12.9965 65.2253C13.4019 66.1727 13.8904 67.3082 13.8139 68.3611C13.7741 68.8959 13.3952 69.3118 13.0829 69.7178C12.8901 69.9785 12.0826 70.7344 12.1856 71.0282ZM13.0795 67.6085C12.7938 66.7107 12.179 63.4627 10.6637 63.9347C9.9426 64.1624 9.813 64.9844 9.99909 65.6082C10.0788 65.8855 10.2616 66.2684 10.1021 66.5457C9.88279 66.9352 9.45744 66.5853 9.25805 66.3443C8.80944 65.803 8.3409 64.9711 7.48688 65.2946C6.57304 65.6412 7.1014 66.7206 7.4038 67.2949C7.56995 67.6085 7.80256 68.206 7.27088 68.1532C6.87211 68.1169 6.73255 67.7637 6.47335 67.493C6.21415 67.2223 5.99151 66.9319 5.62265 66.9682C5.2538 67.0045 5.32026 67.2751 5.31693 67.5755C5.31693 68.3149 5.93834 69.2061 6.38363 69.7772C6.91418 70.4611 7.63518 70.9753 8.4572 71.256C8.4572 70.6684 8.21462 69.5494 8.59345 69.051C8.97227 68.5526 9.82629 69.0015 10.2782 69.1401C10.3691 68.7493 10.4291 68.3519 10.4577 67.9518C10.4544 67.8071 10.4926 67.6644 10.568 67.5405C10.6433 67.4166 10.7526 67.3165 10.883 67.252C11.2153 67.1068 11.531 67.252 11.8467 67.3379C12.2554 67.4336 12.6675 67.5128 13.0795 67.6085ZM22.949 85.7203C23.2813 85.5552 22.5834 84.8224 22.4272 84.6112C22.1514 84.2415 21.859 83.8817 21.6098 83.4955C21.0927 82.654 20.6841 81.7513 20.3936 80.8086C19.7655 78.9469 19.3302 77.0225 18.2236 75.3688C18.0608 75.7748 18.3167 76.4086 18.3931 76.8179C18.4961 77.3658 18.6024 77.9171 18.6988 78.4683C18.8266 79.4403 19.0859 80.3907 19.4697 81.2938C19.9098 82.1205 20.4072 82.9157 20.9585 83.6737C21.4977 84.4653 22.1712 85.1577 22.949 85.7203ZM23.155 88.866C23.1849 88.2454 21.4735 88.1629 21.0349 88.0771C20.5963 87.9912 20.151 87.8724 19.7057 87.747C19.2604 87.6215 18.9082 87.374 18.4861 87.232C17.6995 87.0253 16.9566 86.6798 16.2929 86.2121C15.5319 85.6377 14.7311 85.1327 13.9402 84.598C14.6447 86.2286 16.0204 87.0835 17.5291 87.8988C19.1906 88.8198 21.3041 88.965 23.155 88.866ZM18.4429 74.2696C18.2535 74.4281 18.5659 74.6789 18.6855 74.8539L19.0344 75.3523C19.3102 75.7418 19.5927 76.1214 19.8884 76.4944C20.4797 77.1985 21.0343 77.9323 21.55 78.6928C22.0052 79.4123 22.3143 80.2111 22.7164 80.9604C22.9363 81.339 23.121 81.7368 23.268 82.1487C23.4075 82.5779 23.4142 83.0235 23.5471 83.4526C23.7764 83.1885 23.4707 82.4128 23.4075 82.0992C23.3178 81.6602 23.2215 81.2179 23.1085 80.7789C22.8722 79.8414 22.5381 78.9309 22.1116 78.0623C21.3007 76.3723 19.9383 75.3688 18.4429 74.2696ZM9.26802 71.2989C10.212 71.1188 11.0927 70.6979 11.8234 70.0776C12.136 69.7844 12.4065 69.4501 12.6276 69.084C12.9034 68.6318 12.704 68.4502 12.2588 68.2423C11.9863 68.1136 11.2618 67.8297 11.1057 68.107C10.9495 68.3842 11.0758 68.8562 11.0259 69.1269C11.0059 69.381 10.9059 69.6223 10.7401 69.8168C10.5175 70.0049 10.3347 69.9026 10.0755 69.8168C9.91602 69.7607 9.37436 69.4405 9.21485 69.4867C8.89252 69.5395 9.23479 71.0282 9.26802 71.2989ZM23.1849 84.5353C22.7695 81.9837 21.5898 79.782 20.1177 77.7124C20.6926 80.2111 21.53 82.558 23.1849 84.5485V84.5353ZM21.1446 87.3773C19.5728 86.1527 17.898 85.1624 15.7978 84.9281C17.3397 86.4068 19.2737 86.8557 21.1446 87.3905V87.3773ZM23.2613 85.6938L23.1018 85.8226L23.5671 86.3441C23.7598 86.5587 23.803 86.8029 24.0622 86.5719L23.2613 85.6938Z" fill="white"/>
<path d="M35.0083 96.1872C36.055 97.6759 35.4635 100.426 33.2537 100.062C32.403 99.9238 31.6121 99.2306 31.8713 98.3163C31.9766 97.89 32.2081 97.5048 32.5359 97.2105C32.7486 97.0356 32.9812 96.9002 33.2005 96.7187C33.4963 96.4546 33.576 96.2665 33.0809 96.3886C32.4828 96.5239 31.8846 96.6758 31.2798 96.7946C30.7141 96.852 30.1568 96.9727 29.6183 97.1544C28.6746 97.5703 28.0964 98.379 26.9599 98.3493C26.179 98.3328 25.0591 97.9103 24.7401 97.1346C24.6248 96.787 24.634 96.4106 24.766 96.0689C24.898 95.7273 25.1447 95.4414 25.4645 95.2597C26.6774 94.5269 28.093 95.1442 29.2926 95.5568C29.8875 95.7581 30.4756 96.009 31.107 95.8605C31.7513 95.7349 32.3881 95.574 33.0144 95.3785C32.177 95.1772 31.3529 95.0319 30.6418 94.5434C30.1234 94.1935 29.4056 93.5003 29.6681 92.8171C29.8642 92.3021 30.4391 91.5826 31.0339 91.5925C31.6985 91.5925 32.3 92.1041 32.6954 92.5992C33.0909 93.0943 33.2637 93.7149 33.5229 94.3223C33.8552 95.1475 34.8521 95.1937 35.6031 95.0814C37.4469 94.8685 39.3038 94.7891 41.1592 94.8438C40.0223 94.3085 38.9376 93.6698 37.9193 92.9359C37.471 92.5934 37.0499 92.2171 36.6598 91.8103C36.2611 91.3977 35.952 91.1931 35.4004 91.5099C34.4766 92.0447 33.7389 92.9755 32.6522 92.2559C31.5656 91.5363 32.1538 90.424 33.2072 90.0741C33.8186 89.8694 34.3337 90.0279 34.9252 90.1995C35.2409 90.2886 35.4735 90.3084 35.1478 89.975C34.9073 89.7263 34.6485 89.4957 34.3736 89.2852C33.8984 88.9254 33.586 88.6844 32.9812 88.6877C32.4483 88.71 31.9158 88.6362 31.4094 88.4699C30.5388 88.1398 29.4355 87.199 29.8509 86.1593C30.0893 85.6757 30.4707 85.276 30.9442 85.0139C31.3729 84.7894 32.0242 84.9545 32.4695 85.1228C32.7447 85.2285 32.9915 85.3962 33.1904 85.6127C33.3894 85.8292 33.535 86.0886 33.6159 86.3705C33.7508 86.9471 34.0181 87.4848 34.3968 87.9417C34.8388 88.4468 35.3339 88.9023 35.7659 89.4172C36.1979 89.9321 36.4305 90.7012 37.022 90.9818C36.8891 89.7836 36.8426 87.5423 38.4376 87.2122C39.1023 87.0736 39.5841 87.572 39.7669 88.1662C39.9496 88.7603 39.7403 89.5756 39.4645 90.1467C39.3248 90.4427 39.1496 90.7209 38.9427 90.9752C38.6902 91.2855 38.4343 91.4439 38.5108 91.8796C38.6304 92.5596 39.3249 92.9986 39.8765 93.3122C41.3453 94.1539 43.0101 94.55 44.6384 94.9626C43.9007 93.9229 42.7941 92.1173 43.9738 90.9521C45.0837 89.8397 46.5093 90.8927 46.5292 92.2724C46.4881 93.0294 46.337 93.7766 46.0806 94.4906C45.8945 95.1508 46.0607 95.3587 46.7452 95.4445C47.6314 95.5612 48.5109 95.6646 49.3837 95.7548C50.2377 95.8406 51.0685 95.7548 51.9225 95.7713C52.7765 95.7878 53.6272 95.8043 54.4746 95.8803C54.7438 95.9067 56.5482 96.1245 56.1361 96.7616C55.9068 97.0917 54.7371 96.6428 54.4181 96.5899C54.0227 96.5206 53.6206 96.4513 53.2185 96.4084C52.8458 96.3253 52.4617 96.3041 52.082 96.3457C51.9358 96.3886 51.7929 96.5569 51.6268 96.6097C51.4685 96.651 51.3053 96.671 51.1416 96.6692C50.8658 96.6692 50.59 96.6229 50.3109 96.6328C49.7061 96.6328 48.8188 96.8606 48.3868 97.3128C48.2805 97.4251 47.9083 97.8707 47.9449 98.0324C47.9814 98.1941 48.5629 98.5308 48.6826 98.6662C49.0855 99.104 49.3692 99.6369 49.5067 100.214C49.7094 101.205 49.2973 102.921 47.9482 102.551C47.2237 102.35 46.7452 101.455 46.619 100.766C46.486 99.9436 46.7585 99.0359 46.9247 98.2304C46.4262 98.5374 45.7982 98.6431 45.4692 99.1745C45.1402 99.7059 44.768 100.257 44.901 100.96C45.0812 101.58 45.0532 102.242 44.8212 102.845C44.7265 103.103 44.5684 103.334 44.3613 103.516C44.1541 103.698 43.9044 103.826 43.6349 103.888C43.3354 103.996 43.0131 104.027 42.6984 103.976C42.3838 103.926 42.0873 103.797 41.8371 103.601C41.1725 103.06 41.2655 102.578 41.7009 101.927C41.9135 101.597 42.1395 101.29 42.3655 100.977C42.4391 100.838 42.5433 100.717 42.6704 100.623C42.7976 100.529 42.9444 100.465 43.0999 100.435C43.374 100.368 43.616 100.208 43.7844 99.9832C43.9414 99.7759 44.0793 99.5549 44.1965 99.323C43.0168 99.6366 41.229 100.241 40.3318 99.0392C39.5542 97.9961 40.3152 96.7913 41.4151 96.3985C41.6936 96.2686 42.0075 96.2338 42.308 96.2995C42.6085 96.3652 42.8787 96.5276 43.0766 96.7616C43.482 97.1775 43.9439 97.9829 44.4889 98.2107C45.0339 98.4384 45.9344 97.9763 46.4229 97.7122C47.0603 97.3371 47.6771 96.9283 48.2705 96.4876C47.2503 96.3061 46.2268 96.1575 45.21 95.9595C44.2427 95.7375 43.2518 95.6334 42.2591 95.6492C40.2421 95.7284 38.1784 95.5865 36.1713 95.8605C35.6824 95.8863 35.202 95.998 34.7524 96.1905C34.3903 96.4199 34.0625 96.6988 33.7787 97.0191C33.4464 97.3491 33.1507 97.6627 32.845 97.9895C32.5393 98.3163 32.3631 98.577 32.7253 98.9434C32.9397 99.1284 33.2186 99.2223 33.502 99.205C33.7854 99.1877 34.0507 99.0606 34.2406 98.851C34.4932 98.5506 34.4832 98.1017 34.5364 97.732C34.6265 97.1992 34.7851 96.68 35.0083 96.1872ZM28.9869 96.2631C28.226 96.1014 27.5248 95.603 26.7239 95.6459C26.2288 95.6624 25.0093 96.0882 25.3947 96.7616C26.2288 98.1314 28.2692 97.1742 28.9869 96.2631ZM30.4192 86.4827C31.0306 87.473 32.1272 88.1629 33.3268 87.8031C33.0842 87.1132 32.9281 86.2979 32.2269 85.915C31.436 85.4727 30.9475 85.9051 30.4192 86.4827ZM43.9373 98.5407C43.4421 98.1611 42.8739 97.5274 42.2758 97.3161C42.0166 97.2494 41.7434 97.2601 41.4903 97.347C41.2373 97.4339 41.0158 97.5931 40.8535 97.8046C40.4481 98.4318 41.2157 98.7256 41.7075 98.8345C42.4631 99.0092 43.2569 98.901 43.9373 98.5308V98.5407ZM45.2366 94.3322C45.652 93.7215 46.1903 91.8169 45.2864 91.3878C45.1489 91.3274 44.9942 91.3174 44.85 91.3598C44.7057 91.4021 44.5813 91.4939 44.4989 91.6189C44.2895 91.8697 44.3593 92.1668 44.3826 92.4771C44.439 93.1835 44.6185 93.8799 45.2366 94.3223V94.3322ZM42.0132 102.617C42.4519 102.947 43.1132 103.277 43.6448 102.947C44.0968 102.67 44.1433 102.01 44.0901 101.538C44.0788 101.409 44.0554 101.282 44.0203 101.158C43.9506 100.914 43.9838 100.917 43.7578 100.917C43.482 100.962 43.2242 101.082 43.0135 101.264C42.5768 101.626 42.2338 102.087 42.0132 102.607V102.617ZM37.8827 90.9686C38.6138 91.0181 39.7702 88.3807 38.7799 88.054C38.205 87.8658 37.8594 88.6811 37.8029 89.0904C37.7464 89.7172 37.7732 90.3487 37.8827 90.9686ZM32.6954 94.4048C32.7885 93.6786 31.652 92.0942 30.8113 92.5431C30.1932 92.8732 30.6352 93.4244 31.0007 93.7017C31.4791 94.104 32.0711 94.3495 32.6954 94.4048ZM47.7189 98.5869C47.4421 99.1274 47.3411 99.7398 47.4298 100.34C47.4896 100.749 47.6857 101.445 48.0944 101.66C48.6095 101.921 48.7191 100.881 48.6128 100.558C48.3529 99.8811 48.0545 99.2198 47.7189 98.5771V98.5869ZM34.8355 91.028C34.779 90.721 34.5298 90.7805 34.2406 90.7408C33.9996 90.6882 33.7516 90.6749 33.5063 90.7012C33.2371 90.7573 32.7885 91.0313 32.8782 91.3614C32.9473 91.4817 33.0468 91.5821 33.1668 91.6527C33.2868 91.7233 33.4233 91.7617 33.5627 91.7641C33.9947 91.7047 34.4866 91.2327 34.8355 91.0181V91.028Z" fill="white"/>
<path d="M91.0745 38.2112C90.9093 38.2684 90.7306 38.2754 90.5614 38.2313C90.3921 38.1872 90.2399 38.094 90.1242 37.9636C89.7558 37.6642 89.3448 37.4206 88.9046 37.2408C87.9609 36.848 87.0105 36.5344 86.2229 35.8544C84.6868 34.5126 83.5907 32.7443 83.076 30.7777C82.5975 28.9556 82.5277 27.1699 81.039 25.8264C80.7299 25.5426 80.3744 25.3379 80.0421 25.0837C79.6508 24.748 79.3144 24.3538 79.0451 23.9152C78.8557 23.6545 78.7128 23.3838 79.0285 23.1197C79.4173 22.7897 79.6267 23.539 79.8061 23.7799C80.9227 25.3445 82.8567 26.4965 84.8106 26.3546C85.8441 26.2787 86.7878 25.8627 87.8014 25.6548C88.8877 25.4191 90.0102 25.3989 91.1045 25.5954C92.1212 25.7988 93.0985 26.1632 93.9988 26.6748C94.8923 27.1251 95.7224 27.69 96.4678 28.3549C97.0629 28.9487 97.5289 29.6577 97.8369 30.4377C97.9998 30.8404 98.7574 32.6196 97.8037 32.5767C97.3651 32.5503 96.7004 32.0188 96.3681 31.7845C95.8833 31.4616 95.4153 31.1146 94.9658 30.7447C94.0818 29.9845 93.1296 29.3061 92.1213 28.718C90.1507 27.6386 87.602 26.3018 85.3124 27.2293C86.3326 27.632 87.4159 27.8399 88.4095 28.312C89.3644 28.772 90.2297 29.3968 90.9649 30.1571C92.5932 31.8076 93.3409 34.0389 94.1085 36.1746C94.2143 35.979 94.3377 35.7934 94.4773 35.62C94.6202 35.4682 94.6867 35.3989 94.8429 35.5144C95.1253 35.7323 94.8794 36.4486 94.8429 36.7291C96.2685 36.9107 97.4847 37.254 98.4982 38.3333C99.2625 39.1519 100.176 40.535 99.7876 41.7035C99.6857 41.9739 99.5255 42.2188 99.3183 42.4212C99.1111 42.6237 98.8618 42.7786 98.5879 42.8753C98.4393 42.8949 98.2925 42.9269 98.1493 42.971C98.0795 43.0304 98.0496 43.2615 98.0131 43.3572C97.938 43.5745 97.8365 43.7818 97.7107 43.9745C97.1225 44.7964 95.976 44.0999 95.2948 43.7698C95.1087 44.2154 94.9824 44.8327 94.5371 45.0902C94.0919 45.3476 93.6233 45.1727 93.2079 44.9746C92.3668 44.5539 91.7148 43.8356 91.3803 42.9611C91.1875 42.4957 90.8586 42.0633 90.8253 41.5583C90.7847 40.9661 90.8227 40.3713 90.9383 39.789C91.0398 39.1984 91.2663 38.6358 91.6029 38.1386C91.9053 37.7227 92.4503 37.4784 92.879 37.1945C92.4403 36.98 91.3637 36.6631 91.8422 35.9897C92.2675 35.3923 92.9986 36.3726 93.414 36.5839C92.8956 34.435 92.0482 32.3159 90.5096 30.6787C88.9711 29.0415 86.8543 28.5001 84.8073 27.8961C86.4688 29.0976 88.4626 30.3189 89.526 32.1278C90.0605 33.0424 90.4537 34.0316 90.6924 35.0622C90.8154 35.5969 90.8685 36.1416 91.0247 36.6697C91.1232 36.9196 91.1923 37.1798 91.2307 37.4454C91.216 37.7068 91.1634 37.9647 91.0745 38.2112ZM91.1211 27.3184L90.9449 27.0411C91.6926 26.9982 92.3639 27.2722 93.0517 27.5066C91.892 26.754 90.4997 26.6219 89.1605 26.4635C89.5031 26.6838 89.8644 26.8737 90.2405 27.0312C90.429 27.1109 90.6234 27.176 90.822 27.226C90.9711 27.2733 91.1098 27.3484 91.2307 27.4472C91.8289 27.84 92.5167 28.1073 93.1348 28.4968C94.464 29.3154 95.4111 30.6556 96.8101 31.3917C97.1424 31.5666 97.5113 31.8868 97.3983 31.3554C97.3119 30.9626 97.1424 30.9493 96.8301 30.7909C96.5851 30.6383 96.3664 30.4477 96.1821 30.2265C95.9371 30.0122 95.6761 29.8169 95.4011 29.6422C94.8153 29.2006 94.2051 28.7917 93.5735 28.4176C92.7959 27.9786 91.9352 27.6617 91.1211 27.3052V27.3184ZM91.7857 40.7727C91.4534 41.9346 92.1512 43.6114 93.1747 44.2749C93.7297 44.6347 94.2447 44.6313 94.2048 43.9019C94.1816 43.4893 94.1185 43.08 94.0852 42.6673C94.0852 42.5287 93.9955 42.1128 94.1251 42.0072C94.3444 41.8223 94.8163 42.0534 94.9525 42.2316C95.0888 42.4099 95.1951 42.7565 95.3579 42.9908C95.5107 43.2216 95.7124 43.4165 95.9489 43.5619C96.1853 43.7073 96.4509 43.7997 96.727 43.8325C97.4481 43.9085 97.5113 43.2978 97.4382 42.707C97.3866 42.3601 97.2741 42.0249 97.1059 41.7167C97.0115 41.5717 96.9476 41.4092 96.9179 41.2391C96.8882 41.0689 96.8933 40.8946 96.9331 40.7264C97.2654 40.809 97.4149 40.7661 97.6143 41.0301C97.7213 41.1659 97.8127 41.3132 97.8868 41.4691C97.9632 41.6375 97.92 41.8421 97.9798 41.9874C98.229 42.6079 98.9468 42.1458 98.9468 41.6309C98.8815 41.2613 98.7413 40.9086 98.5348 40.5944C98.349 40.2326 98.138 39.884 97.9034 39.5513C97.5146 38.977 97.0793 38.4357 96.3548 38.3036C96.3548 38.9869 96.5177 39.624 95.647 39.6735C95.1885 39.6966 94.7532 39.5117 94.5006 39.9772C94.2181 40.4954 94.371 41.2117 93.6898 41.4163C93.0086 41.621 92.3041 41.2249 91.789 40.7595L91.7857 40.7727ZM84.475 32.0815C85.9371 34.6232 87.1334 35.8577 89.752 36.6037C89.4296 35.4913 85.7112 32.8242 84.485 32.0683L84.475 32.0815ZM83.8835 29.2527C83.6741 29.4772 84.2889 30.3882 84.4351 30.649C84.683 31.1146 85.0219 31.5264 85.432 31.8604C86.4289 32.679 87.479 33.4382 88.5058 34.2238C87.6153 32.0188 85.7112 30.6358 83.8935 29.2395L83.8835 29.2527ZM95.4609 38.7228C95.3114 38.2145 95.3579 37.6534 94.6468 37.7623C94.3378 37.8085 94.1949 38.0627 93.9157 38.1452C93.6671 38.1804 93.4208 38.23 93.178 38.2937C92.9176 38.3974 92.6808 38.5518 92.4816 38.748C92.2824 38.9442 92.1249 39.1781 92.0183 39.4358C91.8123 40.096 92.7626 40.3799 93.2146 40.6571C93.2877 40.1158 93.3276 39.4655 93.6732 39.0067C94.1118 38.4324 94.8661 38.5281 95.4709 38.7096L95.4609 38.7228ZM89.9414 35.6927C90.2272 35.5672 90.0211 35.3395 89.9414 35.0853C89.8849 34.9071 89.8284 34.7288 89.7752 34.5506C89.6514 34.1435 89.497 33.7463 89.3133 33.3623C88.9652 32.6178 88.4663 31.9526 87.8479 31.4082C86.5386 30.3024 85.3855 29.0349 83.8237 28.2493C84.2789 28.9457 85.1529 29.4376 85.7776 29.9525C86.4272 30.457 87.026 31.023 87.5654 31.6425C88.5823 32.8539 89.1505 34.3294 89.9514 35.6795L89.9414 35.6927Z" fill="white"/>
<path d="M16.9841 20.2678C16.7316 23.2683 15.6183 26.0773 14.1097 28.652C15.4156 27.7244 16.8013 26.9091 18.1439 26.0377C19.1939 25.3577 20.2141 24.5919 20.8555 23.4993C21.1545 22.991 21.2642 22.4002 21.5732 21.905C22.0949 21.0633 22.1847 22.9778 22.2013 23.2551C22.3297 24.7641 22.2492 26.2834 21.962 27.7706C21.6729 29.0613 20.8953 29.7181 19.7323 30.2859C18.3699 30.9445 16.9509 31.4803 15.4921 31.8868C14.1296 32.2697 12.7306 32.547 11.438 33.1477C10.2118 33.699 9.66679 34.4879 9.25141 35.7323C8.97305 36.4867 8.79867 37.275 8.73301 38.0759C8.71308 38.4324 9.00218 39.5348 8.40071 39.5216C7.59986 39.5216 8.06841 38.1782 8.15148 37.7722C8.23456 37.3662 8.32096 36.9437 8.3841 36.5245C8.41623 36.3358 8.4318 36.1448 8.43062 35.9534C8.43062 35.6729 8.45388 35.5936 8.18471 35.5342C8.67209 34.8146 9.16169 34.0962 9.6535 33.3788C10.0855 32.7516 10.7268 32.1608 10.5142 31.3554C10.0888 29.7313 9.66346 28.1733 9.68673 26.4767C9.70999 24.8263 10.2417 23.2815 10.667 21.707C10.8897 20.8752 11.0957 20.0401 11.305 19.2049C11.4081 18.7857 11.5011 18.3632 11.6207 17.9473C11.7395 17.5885 11.9728 17.2779 12.2853 17.0627C12.5778 17.4065 12.7666 17.8252 12.8303 18.2708C12.93 18.8253 13.0131 19.3832 13.1161 19.9212C13.3221 20.9973 13.6146 22.0569 13.8538 23.1263C14.1305 24.1144 14.1917 25.1497 14.0333 26.1631C13.8405 27.1237 13.3687 27.9951 12.9466 28.883C13.7109 28.2228 14.1961 27.2095 14.6081 26.3249C15.1435 25.1964 15.5879 24.0275 15.9374 22.8293C16.0794 22.3786 16.1948 21.9201 16.283 21.4561C16.3162 21.2647 16.4558 20.7167 16.3129 20.5352C16.1035 20.2579 14.9836 21.4132 14.6513 20.7233C14.2891 19.9641 15.6183 19.9113 16.0138 19.8057C15.1199 19.0828 14.3855 18.4358 13.9336 17.3499C13.4757 16.3253 13.2859 15.2023 13.3819 14.0853C13.4816 13.2832 13.8472 11.6361 15.0235 12.0817C15.3525 12.2138 15.6183 12.8046 15.9507 12.6429C16.1135 12.5702 16.2497 12.2336 16.3694 12.0883C16.5173 11.9011 16.6933 11.7375 16.8911 11.6031C17.084 11.4654 17.3036 11.369 17.536 11.3199C17.7684 11.2708 18.0085 11.2701 18.2411 11.3179C18.4738 11.3657 18.6939 11.4609 18.8877 11.5975C19.0814 11.734 19.2445 11.909 19.3667 12.1114C19.4673 12.3027 19.5358 12.5089 19.5694 12.7221C19.6492 13.1215 19.6758 13.0522 20.0912 13.0522C20.34 13.0153 20.5941 13.0351 20.8341 13.11C21.0741 13.1849 21.2939 13.313 21.4769 13.4846C22.1215 14.1448 22.1149 15.3099 21.972 16.1253C21.7622 17.1624 21.2354 18.1099 20.4633 18.8386C20.029 19.2736 19.519 19.6269 18.958 19.8816C18.5393 20.0698 17.8049 20.1193 18.1904 20.6936C18.3299 20.895 18.5027 21.0435 18.3831 21.301C18.3067 21.4693 18.0309 21.6641 17.8448 21.5948C17.6587 21.5254 17.6122 21.126 17.5457 20.9676C17.4283 20.6866 17.2337 20.4441 16.9841 20.2678ZM14.9903 17.066C15.3226 16.6798 15.7214 15.9767 16.2996 15.9239C16.4476 15.9243 16.5934 15.9594 16.7251 16.0266C16.8568 16.0937 16.9706 16.1909 17.0572 16.3101C17.2101 16.4784 17.3297 16.7887 17.5922 16.8151C18.1472 16.8712 18.4895 16.0394 19.0976 16.3695C19.3405 16.5534 19.5506 16.7766 19.719 17.0297C19.9748 17.3334 20.234 17.6337 20.4932 17.9341C20.9576 17.4599 21.2996 16.8812 21.4902 16.2474C21.6297 15.6796 21.7261 14.8214 21.4902 14.2669C21.3306 13.884 20.7624 13.5473 20.3636 13.7751C20.1211 13.9104 20.0313 14.2207 19.8519 14.4121C19.7698 14.494 19.6757 14.563 19.5728 14.6168C19.3568 14.7356 19.3833 14.7389 19.2405 14.6168C18.7486 14.1613 19.1441 13.1611 18.9082 12.5901C18.6955 12.0685 18.001 11.9827 17.5258 12.1642C16.3095 12.6264 16.3993 14.3098 16.0902 15.3397C15.7579 15.1647 15.5884 15.1086 15.4887 14.7257C15.3891 14.3428 15.5585 13.8972 15.5619 13.478C15.5652 13.0588 14.9238 12.4448 14.6879 13.0225C14.6288 13.3149 14.6209 13.6153 14.6646 13.9104C14.6646 14.2867 14.545 14.6366 14.5384 15.0129C14.5459 15.7204 14.6985 16.419 14.987 17.066H14.9903ZM20.8588 25.087C20.6361 24.9088 20.5663 25.087 20.3603 25.2356C20.1543 25.3841 19.9915 25.503 19.8087 25.6416C19.4133 25.9387 19.0245 26.239 18.6257 26.5262C17.8747 27.061 17.0539 27.4802 16.2996 27.9819C15.5315 28.4937 14.7906 29.0445 14.0798 29.6323C13.3487 30.2265 12.5246 30.8206 11.9763 31.5864C13.7076 30.6985 15.3857 29.7082 17.0772 28.7378C17.8154 28.3399 18.5113 27.8687 19.1541 27.3316C19.8752 26.688 20.3271 25.8826 20.8588 25.087ZM11.8866 29.3583C13.568 26.9289 12.9134 23.902 12.4914 21.1987C12.4714 21.0666 12.5113 20.8323 12.302 20.9181C12.2355 20.9445 12.189 21.3769 12.1757 21.4396C12.0926 21.8225 12.0295 22.2054 11.9763 22.5916C11.8878 23.3268 11.839 24.0661 11.8301 24.8065C11.7902 26.3249 11.8833 27.84 11.8733 29.3583H11.8866ZM18.7686 17.0462C18.5061 17.3169 18.2568 17.7064 17.8514 17.7526C17.446 17.7988 17.2201 17.5314 16.9509 17.264C16.7449 17.0561 16.6186 16.9109 16.3262 17.0297C16.0337 17.1485 15.5751 17.5875 15.5552 17.8417C15.5087 18.5019 16.8678 19.0168 17.3563 19.1356C18.3167 19.3766 19.0378 19.0531 19.8286 18.5382C19.5065 18.0165 19.1478 17.5179 18.7553 17.0462H18.7686ZM19.1009 28.1007L13.1161 31.6887C14.3314 31.6212 15.5114 31.2589 16.5531 30.6334C17.5947 30.0078 18.466 29.1383 19.0909 28.1007H19.1009ZM18.1571 30.1935C19.1542 29.999 20.0373 29.4298 20.6223 28.6046C21.2073 27.7794 21.4491 26.7617 21.2974 25.7637C20.8854 27.6881 19.1574 28.6718 18.1472 30.1935H18.1571ZM11.1788 23.7139C10.8232 23.7139 10.667 25.0342 10.6172 25.3643C10.528 25.974 10.4968 26.5907 10.5241 27.2062C10.5988 28.4526 10.8219 29.6858 11.1887 30.88L11.1788 23.7139Z" fill="white"/>
<path d="M90.4399 69.3184C91.0579 70.2822 91.8521 71.1833 92.1014 72.3221C92.2974 73.1572 92.0748 74.57 91.038 74.7648C90.0909 74.9397 89.4197 73.6821 89.2436 72.9295C89.1339 72.4515 89.1339 71.9551 89.2436 71.4771C89.3067 71.1965 89.3964 70.9226 89.4695 70.642C89.5626 70.2921 89.546 70.028 89.227 70.4373C88.5623 71.2791 87.6784 72.1505 87.2663 73.1473C87.0371 73.7052 87.1866 74.1574 87.17 74.7284C87.1599 75.2175 87.0299 75.6968 86.7912 76.1247C86.3259 76.9565 85.3324 77.7124 84.3753 77.1678C83.5279 76.6858 83.5279 75.6098 83.95 74.8308C84.4617 73.8801 85.5816 73.4048 86.296 72.6291C87.1999 71.6455 88.0982 70.6552 88.991 69.6583C87.9708 69.8399 86.1365 70.4637 85.2393 69.688C85.0737 69.5044 84.9401 69.2947 84.8439 69.0675C84.7741 68.952 84.6112 68.8496 84.5747 68.7374C84.5381 68.6252 84.6046 68.5526 84.7076 68.4073C85.041 67.9341 85.5016 67.5635 86.0368 67.3379C87.2564 66.879 88.6222 67.4732 89.8749 67.5128C90.5827 67.5326 90.9217 67.1563 91.3603 66.6381C91.8 66.1287 92.1504 65.5496 92.3971 64.9249C91.5896 65.0009 90.9317 65.09 90.1341 64.8787C89.5725 64.7302 88.8049 64.6147 88.3962 64.1492C88.2187 63.9631 88.1229 63.7147 88.1298 63.4585C88.1366 63.2022 88.2456 62.9592 88.4327 62.7827C88.9378 62.2711 89.6689 62.2512 90.3335 62.3668C91.3869 62.5516 93.2545 63.192 93.836 61.9311C94.4541 60.5843 94.6435 59.2013 94.8329 57.7555C93.6266 58.6665 92.3107 60.1684 90.6525 59.4059C89.9414 59.0758 89.5194 58.3563 89.845 57.5938C90.1707 56.8313 90.9882 56.9105 91.6461 56.8049C92.0881 56.7322 92.53 56.6332 92.9753 56.5738C93.1751 56.5404 93.3775 56.5249 93.5801 56.5276C93.7064 56.5276 93.826 56.6068 93.9423 56.6167C94.3178 56.6497 94.3079 56.2503 94.4242 55.94C94.5827 55.6608 94.6801 55.3515 94.71 55.0323C94.6668 54.1015 94.3278 53.1343 94.165 52.2167C94.0753 51.7282 93.9922 51.2264 93.9257 50.7511C93.8593 50.2758 93.9257 50.2428 94.2348 49.8863C94.4417 50.1181 94.5646 50.4121 94.5837 50.7214C94.6236 51.1571 94.6402 51.5961 94.7 52.0417C94.8481 52.88 95.058 53.7064 95.328 54.5141C95.5944 55.322 95.7628 56.1586 95.8298 57.0062C95.9014 57.892 96.0201 58.7735 96.1854 59.6469C96.2086 59.7822 96.1854 60.076 96.2984 60.1816C96.4114 60.2873 96.5277 60.2278 96.7304 60.1816C97.118 60.0763 97.5181 60.023 97.92 60.0232C98.5846 60.0232 99.4785 60.2245 99.9338 60.7494C100.115 60.9793 100.247 61.243 100.323 61.5249C100.399 61.8068 100.418 62.101 100.377 62.39C100.336 62.679 100.237 62.9568 100.085 63.2069C99.9336 63.457 99.733 63.6742 99.4951 63.8456C98.6976 64.3605 98.0031 63.6145 97.3916 63.1623C97.0546 62.938 96.759 62.6577 96.5177 62.3338C96.3357 62.0085 96.1123 61.7079 95.8531 61.4392C95.7767 63.0897 95.1586 64.7863 95.5208 66.4433C95.5972 66.7734 95.6537 66.7272 95.9893 66.7107L96.5908 66.6711C96.9909 66.6331 97.3937 66.6331 97.7937 66.6711C98.5774 66.7797 99.3084 67.1255 99.8872 67.6613C100.343 68.1301 100.107 68.8926 99.8441 69.4042C99.5117 70.0643 99.1296 70.5661 98.3454 70.4869C97.6618 70.4043 97.0203 70.1151 96.5077 69.6583C96.2643 69.447 96.0507 69.2038 95.873 68.9355C95.7002 68.678 95.6338 68.2753 95.2882 68.2324C95.451 69.1038 95.4776 70.137 95.8365 70.9556C96.1422 71.6587 96.85 72.1571 97.292 72.7677C98.0496 73.8174 98.4251 76.0224 96.6905 76.3228C95.5208 76.5274 94.2746 75.5107 94.6369 74.3422C94.7673 73.9887 94.8782 73.6284 94.9692 73.2629C95.0522 72.8371 95.2716 72.4311 95.3015 71.9986C95.3879 71.1437 95.0522 70.137 94.813 69.325C93.8161 70.1106 92.746 71.1272 91.46 70.1964C91.351 70.1312 91.2562 70.045 91.1813 69.9427C91.1064 69.8405 91.053 69.7243 91.0242 69.6012C90.9954 69.478 90.9917 69.3504 91.0135 69.2258C91.0353 69.1013 91.082 68.9823 91.151 68.8761C91.4833 68.3644 92.2875 68.2588 92.7793 67.9254C93.3225 67.5455 93.8178 67.1022 94.2547 66.6051C94.7498 66.0637 94.7432 65.3871 94.8362 64.684C95.0622 63.0105 95.4377 61.2643 95.3513 59.5743C94.4175 63.0963 92.5965 66.3476 90.4399 69.3184ZM95.883 67.6679C96.2153 68.3281 96.5476 68.9619 97.1889 69.3844C97.6475 69.6847 98.6843 70.0445 98.9867 69.3844C99.2891 68.7242 99.2526 68.1037 98.5182 67.8033C97.6442 67.4369 96.7935 67.6052 95.883 67.6679ZM96.5675 60.9804C96.7321 61.5928 97.1101 62.1274 97.6342 62.4889C98.043 62.7827 99.0266 63.6508 99.3822 62.819C99.6114 62.2909 99.6214 61.5581 99.123 61.1686C98.5248 60.7362 97.2687 60.9903 96.5675 60.9903V60.9804ZM95.9029 72.6126C95.8298 73.0252 95.7833 73.4444 95.6836 73.8537C95.5883 74.1099 95.5269 74.3773 95.5008 74.6492C95.5468 74.864 95.6459 75.064 95.7892 75.2311C95.9325 75.3983 96.1155 75.5273 96.3216 75.6065C96.9464 75.7979 97.0062 74.5601 97.0029 74.1574C96.9921 73.822 96.882 73.4972 96.6863 73.2236C96.4907 72.95 96.2182 72.7398 95.9029 72.6192V72.6126ZM89.3898 68.3281C88.7617 68.1466 88.0606 67.8462 87.3959 67.8561C86.8709 67.8561 86.1199 68.1532 85.9039 68.678C85.5716 69.4702 86.9008 69.1104 87.2331 69.0444C87.9832 68.911 88.7098 68.6697 89.3898 68.3281ZM90.7722 74.0584C91.3404 73.1869 91.0114 71.3814 90.1973 70.7575C89.6157 72.2627 89.6955 73.5599 90.7855 74.065L90.7722 74.0584ZM86.3126 74.032C85.7693 74.2466 85.29 74.5954 84.9203 75.0453C84.7143 75.3358 84.3421 76.1214 84.6943 76.4383C85.1429 76.841 85.8175 76.1577 86.0235 75.821C86.3494 75.2869 86.4576 74.6493 86.3259 74.0386L86.3126 74.032ZM93.7928 57.2901C93.075 57.4287 92.3506 57.5509 91.6362 57.7093C91.1576 57.8116 90.3069 58.0823 90.9051 58.65C91.8422 59.5214 93.3143 58.0262 93.8061 57.2967L93.7928 57.2901ZM92.4204 63.4528C91.7259 63.3438 90.9948 63.1227 90.287 63.1953C89.732 63.2481 88.8814 63.5254 89.7819 63.9182C90.8752 64.3869 91.5996 64.3275 92.4337 63.4594L92.4204 63.4528ZM94.1783 67.526C93.6798 67.9287 93.1814 68.3248 92.6829 68.7341C92.4654 68.877 92.2854 69.0694 92.1579 69.2953C92.0216 69.5923 92.221 69.6815 92.53 69.731C93.0086 69.8102 93.3807 69.2656 93.6632 68.9388C93.8537 68.7602 94.0005 68.5405 94.0921 68.2967C94.1837 68.0529 94.2177 67.7915 94.1916 67.5326L94.1783 67.526Z" fill="white"/>
<path d="M5.76554 55.2535C5.54622 56.4286 3.93455 57.8017 2.68841 57.3528C0.953786 56.7289 2.08029 54.8607 3.20016 54.2731C3.46697 54.13 3.75539 54.0308 4.05418 53.9793C4.29344 53.9364 4.86168 54.0388 5.00124 53.9034C5.30032 53.6096 4.85503 52.5237 4.71879 52.2299C4.65897 52.1012 4.42636 51.5697 4.24692 51.5697C4.06747 51.5697 3.682 52.0814 3.54908 52.1771C2.95605 52.5771 2.23649 52.7484 1.52535 52.659C-0.119555 52.4643 -0.498382 50.7511 0.704558 49.7213C0.932903 49.5104 1.21635 49.3677 1.5225 49.3093C1.82866 49.2509 2.14517 49.2793 2.43586 49.3912C2.72998 49.504 3.00723 49.6561 3.25997 49.8434C3.38957 49.9391 3.65209 50.2428 3.79831 50.1438C3.94452 50.0447 3.66206 49.6123 3.57898 49.4374C3.39289 49.0314 3.2068 48.6254 3.01739 48.2194C2.82798 47.8134 2.56214 47.6681 2.16669 47.4041C1.5619 47.0047 0.837479 46.6779 0.578282 45.955C0.172872 44.7931 0.877356 43.3143 2.25974 43.3737C2.56987 43.3945 2.86467 43.5154 3.09923 43.718C3.3338 43.9206 3.49526 44.1938 3.55905 44.496C3.81824 45.4302 3.28656 46.3181 3.47265 47.2357C3.66538 48.226 4.17381 49.1964 4.54931 50.1206C4.93443 51.1349 5.39771 52.1182 5.93502 53.0617C6.11446 52.0186 6.22412 50.9591 6.50326 49.9391C6.7691 48.9819 7.2011 48.0741 7.55998 47.1532C7.65967 46.899 7.86238 46.5326 7.67629 46.2719C7.4902 46.0111 6.86879 45.9418 6.57636 45.813C5.89673 45.4889 5.33319 44.9659 4.96137 44.3145C4.49282 43.3638 4.96137 41.3866 6.25071 41.4163C6.58142 41.428 6.9022 41.5316 7.17655 41.7154C7.45089 41.8993 7.66779 42.1559 7.80256 42.4561C7.919 42.8721 7.99905 43.2973 8.04182 43.7269C8.14484 44.2881 8.26114 44.8459 8.37413 45.4037C8.91246 44.6115 9.46741 43.8391 10.0356 43.0734C10.6039 42.3076 11.2319 41.5715 11.4911 40.6736C11.6274 40.1851 11.4911 39.9739 11.3183 39.5216C11.1782 39.1287 11.0726 38.7245 11.0026 38.3135C10.9353 37.9191 10.9705 37.514 11.1048 37.1368C11.2391 36.7596 11.4682 36.4227 11.7703 36.1581C12.2222 35.828 13.2357 35.9666 13.7342 36.135C14.5949 36.4254 14.7809 37.1879 14.4221 37.9306C14.2761 38.2651 14.085 38.5783 13.8538 38.8615C13.5979 39.1519 13.249 39.2411 12.9765 39.4853C12.704 39.7296 12.6442 40.2049 12.508 40.4987C12.3319 40.9377 12.1757 41.38 11.9896 41.819C12.7738 41.819 14.5915 41.786 14.7809 42.8093C15.0036 44.0174 13.2756 44.4993 12.3751 44.4927C11.7337 44.4927 11.1788 44.2749 10.5208 44.364C9.86285 44.4531 9.6535 44.7337 9.35775 45.2948C9.02544 45.9187 8.71308 46.5557 8.40071 47.1895C8.08835 47.8233 7.71617 48.3877 7.6497 49.0644C8.07838 48.7904 8.414 48.4471 8.92907 48.3514C9.42738 48.2689 9.93844 48.3085 10.4178 48.4669C11.2087 48.7079 12.4116 49.3119 11.9962 50.322C11.7337 50.9822 10.7069 51.6423 10.0224 51.3981C9.51417 51.1974 9.02395 50.9545 8.55689 50.6719C8.25118 50.4969 7.85573 50.0117 7.49685 50.2791C7.13796 50.5465 7.12799 51.1142 7.06153 51.4806C6.94854 52.088 6.84553 52.6986 6.74916 53.306C6.57304 54.4481 6.7691 55.567 6.87544 56.7025C7.00055 57.8494 7.01612 59.0054 6.92196 60.1552C6.91403 60.6565 6.82194 61.1529 6.64947 61.6241C6.51655 61.9047 6.20086 62.238 5.98486 61.8089C5.82868 61.4789 6.05132 60.8451 6.11114 60.5348C6.24045 59.9503 6.30838 59.3541 6.31384 58.7557C6.31384 58.1219 6.22745 57.4914 6.15434 56.861C6.13108 56.5771 6.06794 55.2436 5.76554 55.2535ZM6.5099 42.0699C6.10117 42.2349 5.8453 42.2217 5.76554 42.7036C5.70165 43.0822 5.71635 43.4697 5.80874 43.8424C5.89167 44.1486 6.04986 44.4296 6.2691 44.66C6.48835 44.8905 6.76178 45.0632 7.06485 45.1628C7.29746 45.242 7.60318 45.3707 7.72946 45.1199C7.85573 44.869 7.56995 44.1296 7.52343 43.8887C7.39715 43.1658 7.43703 42.2019 6.5099 42.0699ZM3.682 50.8039C3.09382 50.4078 2.38934 49.708 1.61839 49.8896C1.46794 49.9229 1.32605 49.9868 1.20168 50.0772C1.0773 50.1677 0.973119 50.2827 0.895703 50.4151C0.818286 50.5475 0.769308 50.6944 0.751853 50.8465C0.734397 50.9987 0.748843 51.1527 0.79428 51.2991C1.23957 52.5732 3.23671 51.5433 3.682 50.8039ZM2.68509 46.9551C2.89444 46.2323 3.11708 45.4698 2.92102 44.7139C2.7449 44.024 2.30958 43.7599 1.70147 44.2088C1.46527 44.3705 1.29323 44.609 1.21499 44.8831C1.13674 45.1573 1.15718 45.4499 1.2728 45.7107C1.53532 46.3214 2.14676 46.6218 2.68509 46.9551ZM11.9165 39.4985C12.4216 39.0793 13.0463 38.7955 13.3554 38.1782C13.6146 37.6765 13.8738 36.9272 13.1726 36.6697C12.9246 36.5952 12.6587 36.6058 12.4175 36.6999C12.1764 36.7939 11.9741 36.9658 11.8434 37.1879C11.4413 37.8943 11.737 38.7889 11.9165 39.4985ZM8.28108 49.8731C8.66988 50.0876 9.05535 50.3121 9.44747 50.5333C9.73657 50.6884 10.0656 50.9327 10.4111 50.8633C10.9262 50.7676 11.4413 49.8302 11.0093 49.4044C10.7335 49.1271 9.94592 49.0743 9.58704 49.0743C9.31244 49.0541 9.03844 49.1205 8.80398 49.2639C8.56953 49.4073 8.38656 49.6204 8.28108 49.8731ZM10.4975 43.7071C10.6072 43.9415 11.305 43.7698 11.5642 43.7995C11.9763 43.849 12.2887 43.9943 12.7107 43.9052C13.1327 43.816 14.3091 43.344 13.7641 42.7367C13.3952 42.3241 12.3618 42.4297 11.8965 42.6442C11.3582 42.9116 11.0159 43.4232 10.4975 43.7071ZM2.47906 56.2503C2.68841 56.455 2.74823 56.6827 3.06724 56.6794C3.38044 56.6298 3.67245 56.491 3.90797 56.28C4.27682 55.9995 4.93811 55.3558 4.84838 54.831C4.73872 54.2137 3.91793 54.5999 3.60225 54.7913C3.09714 55.095 2.55217 55.6298 2.47906 56.2437V56.2503Z" fill="white"/>
<path d="M63.1112 13.1281C63.3106 12.7287 63.5731 12.7056 63.9685 12.798C64.4437 12.9267 64.9123 13.0555 65.3875 13.1677C65.8532 13.3262 66.3296 13.4519 66.8131 13.544C67.3315 13.5935 67.8299 13.3757 68.3317 13.2997C67.9994 11.9794 67.8465 10.6855 68.5211 9.43115C68.8833 8.77098 69.4349 8.60263 70.1394 8.39468C70.5615 8.27255 71.3257 8.01178 71.7345 8.30886C72.0668 8.55642 71.9139 8.96903 71.8574 9.29911C71.7644 9.86686 72.0269 10.4181 71.8907 10.9924C71.5849 12.2798 69.847 12.7188 69.3485 13.884C70.6445 14.1514 72.542 14.9997 73.5555 13.7354C73.9709 13.2139 74.1271 12.5769 74.6521 12.1279C75.1771 11.679 75.9115 11.514 76.626 11.339C77.2108 11.1971 77.9951 11.0089 78.3573 11.6328C78.7793 12.3755 78.2642 12.9531 77.789 13.4912C77.3824 14.0194 76.7881 14.3736 76.1275 14.4814C75.2669 14.6036 74.4461 14.663 73.5954 14.8643L77.7591 16.8448C78.0017 16.9604 77.9818 16.934 78.2011 16.8448C78.3883 16.7534 78.5654 16.6428 78.7295 16.5148C79.0618 16.3035 79.414 16.0955 79.7596 15.8909C80.3143 15.5263 80.9786 15.3631 81.6405 15.4288C82.222 15.4618 83.0262 15.4288 83.2654 16.0889C83.3397 16.3358 83.3606 16.5954 83.3268 16.8508C83.293 17.1062 83.2053 17.3516 83.0694 17.571C82.7071 18.086 81.9063 18.1091 81.3347 18.1487C80.5978 18.1791 79.8599 18.1181 79.1382 17.9671C79.7729 18.5943 80.3478 19.3205 81.1553 19.7364C81.8797 20.1061 82.6507 20.2018 83.2986 20.7266C84.4185 21.6542 85.0366 23.8558 83.066 24.1793C82.7181 24.2497 82.3584 24.2377 82.016 24.1442C81.6736 24.0507 81.3583 23.8784 81.0955 23.6413C80.4309 22.9613 80.5904 22.1823 80.6236 21.3307C80.6568 20.4791 79.6699 19.5548 79.0651 18.9343C78.3451 18.2332 77.4984 17.6733 76.5695 17.2839C76.9018 17.944 77.4036 18.4259 77.6395 19.1356C77.8322 19.71 78.015 20.5451 77.8156 21.1425C77.6162 21.74 77.0281 21.7433 76.4864 21.7499C76.1973 21.7499 75.8584 21.8159 75.6357 21.5849C75.4576 21.3073 75.3441 20.9938 75.3034 20.6672C75.072 19.8857 74.9731 19.0714 75.011 18.2576C75.0542 17.5974 75.1506 16.9835 74.6554 16.4388C74.1603 15.8942 73.4159 15.6301 72.7347 15.4189C71.973 15.1195 71.1824 14.8983 70.3754 14.7587C70.8439 15.4882 71.4919 16.1352 71.9272 16.8746C72.04 17.1153 72.1006 17.377 72.1052 17.6425C72.1098 17.908 72.0582 18.1716 71.9538 18.416C71.7744 18.9244 71.4753 19.3832 70.9104 19.1125C70.3454 18.8419 69.8304 18.6537 69.5313 18.1388C69.1458 17.4786 69.2655 16.5379 69.199 15.8084C69.1325 15.0789 68.6407 14.696 67.9595 14.3923C66.4342 13.7751 64.6764 13.7321 63.1112 13.1281ZM81.5009 20.8191C81.3447 21.4792 81.0755 22.3407 81.5275 22.9415C81.7161 23.1752 81.9637 23.3551 82.245 23.4629C82.5263 23.5707 82.8314 23.6027 83.1292 23.5555C85.1197 23.232 82.0558 21.1689 81.5009 20.8191ZM71.0233 9.08786C70.6179 9.22979 70.1992 9.34532 69.8005 9.50706C69.4017 9.66881 69.3485 9.83715 69.2123 10.2068C68.9265 10.9934 68.8985 11.8495 69.1325 12.6528C69.5917 12.215 69.9657 11.6969 70.2358 11.1245L71.0233 9.08786ZM79.2944 17.3664C79.959 17.5083 82.7005 18.1784 82.6573 16.9142C82.6374 16.3167 81.6272 16.4223 81.2217 16.452C80.4176 16.5049 79.9523 16.9472 79.2944 17.3664ZM74.6421 13.7354C76.2505 13.8345 77.4867 13.2733 77.7591 12.3359C76.8221 11.8837 74.9977 12.6825 74.6554 13.7288L74.6421 13.7354ZM75.9049 18.0265C75.8617 18.5085 75.8484 21.5716 76.8785 21.0468C77.9087 20.522 76.4831 18.4226 75.9182 18.0364L75.9049 18.0265ZM70.2557 16.2375C70.1144 16.6833 70.1144 17.1615 70.2557 17.6073C70.3754 17.8978 70.7542 18.3401 71.1197 18.2972C72.1399 18.1883 70.4485 16.4619 70.2557 16.2474V16.2375Z" fill="white"/>
<path d="M12.066 54.5801C12.6542 54.656 13.6644 54.5801 14.0598 55.1181C14.4553 55.6562 13.9867 56.2536 13.6013 56.6167C13.1245 57.0477 12.5013 57.2836 11.8567 57.2769C11.4189 57.3177 10.9854 57.395 10.5607 57.5079C10.2816 57.5707 9.83959 57.7588 9.54716 57.6796C8.77289 57.465 9.06532 56.3956 9.2348 55.9103C9.49399 55.1676 9.74987 54.2863 10.2317 53.646C10.5009 53.2796 11.4014 52.4345 11.8932 52.6359C12.6575 52.9363 12.1989 54.052 12.066 54.5801ZM10.4344 56.6068C10.7667 56.5837 11.1289 56.5177 11.4778 56.5276C11.7408 56.5557 12.0066 56.5424 12.2654 56.488C12.5744 56.3989 13.6578 55.8278 13.372 55.3987C13.0862 54.9696 12.1292 55.237 11.7902 55.4218C11.2829 55.7496 10.8262 56.1487 10.4344 56.6068ZM11.5609 53.306C10.8398 53.5865 9.72328 54.8343 9.8994 55.676C10.6504 55.1247 11.8135 54.4349 11.5609 53.3027V53.306Z" fill="white"/>
<path d="M61.9514 16.8911C61.8019 17.2971 61.7388 17.9737 61.2137 18.0397C60.6887 18.1058 59.9643 17.6667 59.6718 17.2706C59.2631 16.7128 59.3395 15.9503 59.2897 15.3099C59.2399 14.6696 58.8943 13.95 59.6951 13.7453C59.7749 14.2174 59.8613 14.6927 59.931 15.168C59.9522 15.59 60.0145 16.009 60.1171 16.419C60.2301 16.726 60.8515 17.4885 61.2038 17.099C61.8684 16.386 58.9674 13.6199 60.702 13.577C61.3234 13.5605 62.1209 13.983 62.6293 14.2999C63.2114 14.6611 63.7216 15.1254 64.1347 15.6697C64.5933 16.2705 64.7694 16.9505 64.0217 17.4324C63.274 17.9143 62.5662 17.3334 61.9514 16.8911ZM61.4198 14.4319C61.2436 14.6894 61.6191 15.0558 61.7787 15.3066C61.9382 15.5575 62.1409 15.8975 62.3668 16.1748C62.5928 16.452 63.3338 17.2277 63.7625 16.8778C64.673 16.1352 61.8551 14.6696 61.4198 14.4319Z" fill="white"/>
<path d="M89.8749 80.4389C89.8749 81.1849 90.1275 82.5052 89.4562 83.0598C88.8747 83.5351 88.1602 82.5349 87.9177 82.0695C87.5156 81.2905 87.7449 80.5544 87.8612 79.7391C87.9466 79.3556 87.9845 78.9632 87.9741 78.5706C87.9409 78.2868 87.7814 78.0788 88.0672 77.8708C88.4925 77.5639 89.4895 77.7454 89.9547 77.8708C90.5814 78.0559 91.1277 78.444 91.5065 78.9733C91.8555 79.4619 92.2376 80.3168 91.7192 80.8449C91.2008 81.373 90.3368 80.7789 89.8749 80.4389ZM91.0878 80.5016C91.4733 79.9504 90.925 79.3694 90.4897 79.036C89.9822 78.6637 89.3525 78.4941 88.7252 78.5607C88.7394 78.74 88.7915 78.9144 88.878 79.0724C89.1033 79.269 89.3535 79.4355 89.6224 79.5675C90.1175 79.8811 90.6027 80.2111 91.0878 80.5016ZM88.4793 79.8415C88.3689 80.3285 88.3275 80.8284 88.3563 81.3268C88.3862 81.5744 88.6687 82.5481 89.0209 82.3699C89.3067 82.2247 89.1372 81.3961 89.1073 81.1651C89.0565 80.6646 88.8349 80.1963 88.4793 79.8381V79.8415Z" fill="white"/>
<path d="M88.2533 21.2218C88.6587 21.4693 89.6058 21.9777 89.1804 22.5421C88.7916 23.0735 88.0672 23.0207 87.4824 22.9019C86.8124 22.7509 86.2144 22.377 85.7876 21.8423C85.5978 21.6309 85.3473 21.4823 85.0698 21.4165C84.8139 21.3274 84.5979 21.2119 84.7375 20.9049C84.8771 20.5979 85.3423 20.5286 85.6082 20.4197C85.9543 20.2592 86.2876 20.0727 86.6051 19.8618C87.2522 19.4125 87.9906 19.1094 88.7684 18.9739C89.3732 18.9046 90.0743 19.0003 89.8683 19.8024C89.6988 20.4032 88.7517 20.9181 88.2533 21.2218ZM87.0105 20.5055C87.7582 20.5055 88.4095 20.5055 88.9112 19.875C88.5674 19.8385 88.2197 19.8758 87.8917 19.9846C87.5638 20.0934 87.2632 20.2711 87.0105 20.5055ZM86.8576 21.532C86.5951 22.1922 87.9243 22.3011 88.3264 22.1328L86.8576 21.532Z" fill="white"/>
<path d="M97.4215 51.4938C97.9785 51.1723 98.6072 50.9933 99.2511 50.9732C99.895 50.953 100.534 51.0922 101.11 51.3783C101.509 51.5763 101.831 51.88 101.698 52.3685C101.565 52.8571 100.851 53.0287 100.426 53.2399C101.16 53.6195 101.479 54.8376 100.961 55.501C100.17 56.5111 99.1894 55.501 98.6012 54.8409C97.9158 54.0349 97.3425 53.1412 96.8965 52.1837C96.7669 51.9163 96.6473 51.6489 96.521 51.3783C96.4512 51.2297 96.3881 51.1835 96.4711 51.0647C96.5528 50.9808 96.663 50.9302 96.7802 50.9228C97.1158 50.9029 97.2288 51.2792 97.4215 51.4938ZM98.3055 53.1145C98.2457 53.3753 98.568 53.6261 98.7275 53.8242C98.9634 54.1246 99.1994 54.4217 99.4419 54.7154C99.6845 55.0092 100.266 55.9367 100.588 55.1775C101.133 53.9001 99.0797 53.4314 98.3055 53.1079V53.1145ZM97.5744 51.9196C98.0687 52.3348 98.6806 52.5874 99.3256 52.6425C99.7809 52.7151 100.436 52.8802 100.814 52.5105C101.147 52.2035 100.934 52.0648 100.602 51.913C100.309 51.7825 99.9922 51.7129 99.6712 51.7084C98.9668 51.6786 98.2789 51.8833 97.5744 51.913V51.9196Z" fill="white"/>
<path d="M52.0388 90.381C52.1252 89.8529 52.2183 89.0805 52.8563 88.932C53.4345 88.7966 53.8831 89.3149 54.0858 89.7803C54.3982 90.5032 54.571 91.2558 54.2287 91.9985C54.0576 92.2872 53.9067 92.5871 53.7768 92.8963C53.697 93.1472 53.7336 93.6423 53.4644 93.7908C52.8929 94.1209 52.3711 93.2264 52.0222 92.9392C51.4548 92.4894 50.9226 91.9972 50.4305 91.467C50.0517 91.0511 49.4003 90.3579 50.1979 89.9618C50.9057 89.6054 51.464 90.0312 52.0388 90.381ZM52.9726 89.6615C52.7443 90.0618 52.6479 90.5231 52.6967 90.9807C52.7456 91.4382 52.9373 91.8691 53.2451 92.213C53.537 91.8339 53.6715 91.358 53.6208 90.8833C53.5701 90.4086 53.3381 89.9713 52.9726 89.6615ZM52.1086 92.4144C52.205 91.7971 51.2546 90.5989 50.5734 90.4801C50.4803 90.9653 51.0685 91.708 52.1086 92.4243V92.4144Z" fill="white"/>
<path d="M27.3819 84.938C27.0221 84.846 26.7031 84.6382 26.4747 84.3471C26.2531 84.043 26.0753 83.7097 25.9463 83.3568C25.7237 82.7825 25.3881 81.9936 25.4412 81.3763C25.45 81.2384 25.4886 81.104 25.5546 80.9824C25.6206 80.8607 25.7123 80.7547 25.8234 80.6716C25.9346 80.5885 26.0625 80.5302 26.1984 80.5009C26.3344 80.4716 26.4751 80.4718 26.611 80.5016C27.229 80.5973 27.3188 81.2179 27.362 81.7328C27.764 81.3466 28.2359 80.7624 28.8573 81.0727C29.1082 81.2385 29.3134 81.464 29.4544 81.7285C29.5954 81.9931 29.6678 82.2884 29.6648 82.5877C29.605 83.2479 29.0401 83.7662 28.6314 84.2382C28.422 84.4725 28.1429 84.9479 27.8538 85.0766C27.6245 85.1822 27.5613 85.0733 27.3819 84.938ZM27.6577 83.9675C28.7809 83.0829 28.9537 82.5052 28.3522 81.7526C27.7508 82.3534 27.5813 83.0763 27.6577 83.9675ZM26.8635 83.7265C26.8369 82.8155 26.8236 81.9375 26.3817 81.109C25.943 81.4886 26.2255 82.9112 26.8635 83.7265Z" fill="white"/>
<path d="M55.0827 101.284C54.6375 101.389 53.6239 101.868 53.2817 101.363C52.9959 100.944 53.3481 100.152 53.6339 99.8182C54.0892 99.29 54.6807 99.3164 55.2722 99.0623C55.4682 98.9764 55.6045 98.8906 55.6045 98.6695C55.6211 98.5341 55.5347 98.4252 55.528 98.2965C55.5362 98.1388 55.563 97.9826 55.6078 97.8311C56.2385 98.4062 56.6661 99.1677 56.8273 100.003C56.9968 100.703 57.1596 101.558 56.8074 102.228C56.6014 102.637 55.9733 103.469 55.425 103.297C54.7571 103.083 55.0329 101.785 55.0827 101.284ZM55.3552 99.6333C54.8368 99.6069 53.7269 99.9865 53.9529 100.699C54.1789 101.412 55.1625 99.8545 55.3552 99.6267V99.6333ZM56.1661 100.313L55.9766 100.277C55.8936 100.937 55.8138 101.62 55.7307 102.294C56.3189 101.749 56.2624 101.026 56.1594 100.307L56.1661 100.313Z" fill="white"/>
<path d="M68.4347 88.6811C67.5973 88.4468 67.4012 87.7239 66.9426 87.0967C66.4442 86.4167 65.6533 85.8457 64.7727 86.0503C65.105 86.9053 65.876 87.1561 66.6369 87.5258C66.9692 87.681 67.4477 87.8559 67.0457 88.2223C66.6558 88.4848 66.1849 88.6018 65.7164 88.5524C65.2113 88.5524 64.7029 88.5293 64.1978 88.5062C63.8223 88.4897 63.274 88.5722 62.9384 88.3543C62.4532 88.0242 62.4233 87.0109 62.8653 86.6478C63.1245 86.4365 63.5631 86.6016 63.8788 86.6478C64.354 86.7039 64.261 86.6313 64.1912 86.2154C64.0483 85.3869 64.8558 85.268 65.5204 85.4133C67.1553 85.7665 67.7468 87.3707 68.4347 88.6811ZM65.4639 87.846C64.5667 87.3509 63.8855 87.265 63.2308 87.5423C63.4701 87.9318 64.6963 88.1035 65.4639 87.846Z" fill="white"/>
<path d="M4.14723 35.2074C4.10071 34.4648 3.83486 33.1807 4.38981 32.5404C4.85836 31.999 5.61601 32.8902 5.86192 33.2797C6.19233 33.8341 6.32354 34.4835 6.2341 35.1216C6.18757 35.5738 6.07459 36.0194 6.02142 36.4717C5.9822 36.6528 5.97434 36.8392 5.99816 37.0229C6.03471 37.1945 6.16431 37.3299 6.18093 37.5081C6.22413 37.9273 5.87853 37.858 5.56617 37.7887C5.18069 37.6996 4.80519 37.6369 4.41972 37.5609C3.78225 37.4191 3.20298 37.0889 2.7582 36.6136C2.37937 36.2241 2.02049 35.6233 2.22319 35.0589C2.48571 34.3591 3.71856 35.049 4.14723 35.2074ZM5.07768 33.0586C4.47289 33.6957 4.7919 35.7521 5.53626 36.2208C5.72899 35.1249 6.06462 34.0257 5.07768 33.0586ZM2.91438 35.2999C2.77814 36.1251 3.91129 36.98 4.93479 36.8381C4.78525 36.0789 3.80163 35.3197 2.91438 35.2999Z" fill="white"/>
<path d="M90.2969 51.2759C89.8218 51.2 89.0907 51.2033 89.1405 50.5531C89.2084 50.0372 89.4496 49.5592 89.8251 49.1964C90.2589 48.8498 90.7344 48.5582 91.2407 48.3283C91.6428 48.0972 92.201 47.8629 92.334 48.4834C92.4298 49.1275 92.4376 49.7815 92.3572 50.4276C92.3074 51.0515 92.2143 51.781 91.8255 52.2959C91.563 52.626 91.0679 53.1046 90.606 52.8306C90.1441 52.5567 90.2405 51.7348 90.2969 51.2759ZM91.6993 49.6255C91.2606 50.4078 90.9117 51.2066 91.1377 52.1672C91.8787 51.408 91.789 50.5036 91.7159 49.6288L91.6993 49.6255ZM91.0745 49.1337C90.5595 49.4638 89.8816 49.8764 90.0278 50.5498C90.5694 50.3088 90.7888 49.642 91.0745 49.137V49.1337Z" fill="white"/>
<path d="M58.552 95.9628C58.0436 95.6327 58.243 95.2333 58.7115 94.9098C59.0637 94.6655 59.8579 94.2892 60.2999 94.3487C60.7419 94.4081 60.6621 95.1178 60.4129 95.3587C60.0141 95.7515 59.0737 95.8208 58.552 95.9628Z" fill="white"/>
<path d="M99.3057 44.3376C99.8208 43.2384 101.064 43.6477 101.668 44.4597C102.001 44.8987 101.791 45.2816 101.253 45.1199C100.592 44.9119 99.9504 44.5983 99.3057 44.3376Z" fill="white"/>
<path d="M4.50944 65.6874C4.03093 65.3574 3.3065 65.0471 2.93765 64.6015C2.56879 64.1558 2.98417 63.8918 3.44275 63.9413C4.24028 64.037 5.3402 64.9612 4.50944 65.6874Z" fill="white"/>
<path d="M63.3039 101.069C63.2474 101.521 62.7756 102.34 62.307 102.462C61.7587 102.597 61.7953 101.914 61.9116 101.591C62.0553 101.144 62.3169 100.744 62.6692 100.432C63.1378 100.072 63.3106 100.65 63.3039 101.069Z" fill="white"/>
<path d="M96.7004 47.4635C96.4014 47.886 96.1588 48.2062 95.6437 47.7638C95.3546 47.4394 95.1992 47.0186 95.2084 46.5854C95.2084 46.2257 95.4576 45.8692 95.873 46.0771C96.2884 46.2851 96.4977 47.0839 96.7004 47.4635Z" fill="white"/>
<path d="M10.4477 61.4954C10.4477 61.8089 10.3347 62.4856 9.89276 62.0862C9.53014 61.636 9.28067 61.1064 9.16501 60.5414C9.12181 60.0628 9.60033 59.9341 9.94925 60.1618C10.3779 60.449 10.4544 61.0266 10.4477 61.4954Z" fill="white"/>
<path d="M94.1816 46.7142C94.3712 46.8404 94.5306 47.0062 94.6489 47.2001C94.7671 47.3939 94.8413 47.6111 94.8661 47.8365C94.9426 48.1897 95.0954 48.8597 94.4873 48.7739C94.0055 48.7046 93.6665 48.1401 93.6399 47.711C93.6205 47.5102 93.6616 47.3082 93.758 47.1307C93.8545 46.9532 94.0019 46.8082 94.1816 46.7142Z" fill="white"/>
<path d="M62.214 10.6161C62.909 10.7387 63.5959 10.9029 64.2709 11.108C64.7195 11.2598 64.8458 11.3621 64.6331 11.8144C64.467 12.1642 64.4039 12.1906 64.0217 12.0586C63.7577 11.9646 63.5065 11.8382 63.274 11.6823C63.0414 11.5305 62.8221 11.3522 62.6094 11.1905C62.3967 11.0288 62.0877 10.9495 62.214 10.6161Z" fill="white"/>
<path d="M15.286 35.2569C15.316 34.6496 16.6153 33.5834 16.8014 34.5968C16.8051 34.8275 16.7552 35.056 16.6555 35.2644C16.5558 35.4728 16.4089 35.6555 16.2265 35.7983C15.7214 36.0954 15.502 35.6068 15.286 35.2569Z" fill="white"/>
<path d="M9.30458 63.1821C8.76625 62.9576 7.76269 61.8849 8.26114 61.2643C8.5436 60.9111 9.02212 61.1653 9.23147 61.4756C9.52722 61.908 9.30458 62.6903 9.30458 63.1821Z" fill="white"/>
<path d="M5.46315 64.07C4.93811 64.07 3.46933 63.1524 4.27351 62.5615C4.63572 62.2909 5.12753 62.6309 5.34352 62.9246C5.48119 63.0793 5.56673 63.2729 5.58818 63.4783C5.60963 63.6837 5.56592 63.8905 5.46315 64.07Z" fill="white"/>
<path d="M15.5452 10.8142C15.0235 10.9561 14.8042 11.0651 14.4353 10.5666C14.2326 10.2927 13.9037 9.6523 14.0133 9.31561C14.1429 8.91621 14.5915 8.98553 14.7942 9.2529C15.1299 9.68201 15.316 10.329 15.5452 10.8142Z" fill="white"/>
<path d="M64.6597 3.91543C64.7295 4.67793 63.8921 5.7177 63.0514 5.23577C62.2106 4.75385 64.2244 3.91543 64.6597 3.91543Z" fill="white"/>
<path d="M21.9653 11.613C22.3393 11.133 22.7516 10.6837 23.1982 10.2696C23.5305 9.99889 23.8628 10.1606 23.9027 10.6261C23.9112 10.796 23.8612 10.9638 23.7609 11.1018C23.6607 11.2398 23.5161 11.3397 23.3511 11.3852C23.0852 11.481 22.816 11.5569 22.5535 11.6625C22.291 11.7681 22.1614 11.9101 21.9653 11.613Z" fill="white"/>
<path d="M81.0024 74.0815C81.4012 73.5401 82.8068 73.4741 82.7902 74.3753C82.7902 74.8374 82.2153 74.9265 81.8531 74.8473C81.6565 74.8042 81.4745 74.711 81.3253 74.5766C81.1761 74.4423 81.0648 74.2716 81.0024 74.0815Z" fill="white"/>
<path d="M16.8014 9.31892C16.6917 9.72162 16.6485 10.3521 16.4126 10.702C16.1035 11.1674 15.8576 10.7548 15.7679 10.4049C15.6985 10.1971 15.6772 9.97643 15.7054 9.7593C15.7335 9.54216 15.8106 9.33412 15.9307 9.15057C15.9839 9.08456 16.263 8.79738 16.3561 8.80068C16.4491 8.80398 16.7349 9.243 16.8014 9.31892Z" fill="white"/>
<path d="M86.7313 83.3602C87.0836 83.6143 87.6086 83.8586 87.8147 84.2613C87.8607 84.3356 87.8882 84.4197 87.8949 84.5067C87.9016 84.5937 87.8873 84.6811 87.8532 84.7615C87.8191 84.8419 87.7661 84.913 87.6987 84.969C87.6313 85.0249 87.5514 85.0641 87.4657 85.0832C87.0869 85.1591 86.8011 84.829 86.6317 84.532C86.508 84.3315 86.4319 84.1058 86.409 83.8718C86.4223 83.6605 86.615 83.512 86.7313 83.3602Z" fill="white"/>
<path d="M82.5111 72.6489C82.1588 72.4311 81.6006 72.2759 81.4211 71.8633C81.2417 71.4507 81.5806 71.3748 81.9296 71.3682C82.2785 71.3616 82.8102 71.4177 83.0428 71.7511C83.3651 72.2198 82.8401 72.398 82.5111 72.6489Z" fill="white"/>
<path d="M62.0478 99.5937C62.0013 100.069 61.2769 101.244 60.7186 100.891C60.2368 100.584 60.6787 99.9634 61.0044 99.6993C61.2237 99.5178 62.0611 98.9566 62.0478 99.5937Z" fill="white"/>
<path d="M39.2119 15.5146C39.1953 14.9072 39.7104 15.1416 40.0493 15.3199C40.2786 15.442 40.9698 15.7292 40.8535 16.1022C40.7651 16.2841 40.608 16.424 40.4163 16.4914C40.2246 16.5587 40.0139 16.5482 39.83 16.4619C39.6669 16.3547 39.5279 16.2153 39.4216 16.0523C39.3152 15.8893 39.2438 15.7062 39.2119 15.5146Z" fill="white"/>
<path d="M64.1812 2.72383C63.8489 3.03081 63.4136 3.62826 62.9916 3.80321C62.9281 3.83902 62.8559 3.85668 62.7829 3.85423C62.71 3.85178 62.6391 3.82932 62.5782 3.78934C62.5173 3.74935 62.4687 3.6934 62.4379 3.62768C62.407 3.56197 62.3951 3.48905 62.4034 3.41701C62.4233 3.08692 62.9185 2.69082 63.1677 2.50267C63.5831 2.18909 63.8988 2.31123 64.1812 2.72383Z" fill="white"/>
<path d="M21.653 10.6723C21.653 11.0387 21.6065 11.372 21.1944 11.4744C20.7823 11.5767 20.4068 11.3423 20.4866 10.8934C20.5364 10.6029 20.6793 10.0022 21.0116 9.90317C21.4968 9.77773 21.6862 10.3026 21.653 10.6723Z" fill="white"/>
<path d="M99.9936 45.955C99.8872 47.107 98.5248 45.8196 98.4351 45.2948C98.3653 44.8756 98.877 44.8261 99.1263 44.9878C99.5121 45.2097 99.8161 45.5487 99.9936 45.955Z" fill="white"/>
<path d="M24.9494 91.741C24.7529 91.7612 24.5542 91.7376 24.368 91.672C24.1817 91.6063 24.0125 91.5002 23.8728 91.3614C23.5903 91.0313 23.6302 90.6055 24.122 90.5263C24.5276 90.5343 24.9155 90.6933 25.2086 90.9719C25.418 91.2723 25.1488 91.5627 24.9494 91.741Z" fill="white"/>
<path d="M76.6891 23.5819C76.636 23.8228 76.8918 24.1364 76.7489 24.3543C76.5562 24.6546 75.9248 24.4632 75.752 24.2354C75.5792 24.0077 75.4862 23.3145 75.7786 23.0768C75.8658 23.0066 75.9722 22.964 76.084 22.9545C76.1958 22.9449 76.308 22.9688 76.406 23.0232C76.504 23.0775 76.5833 23.1598 76.6338 23.2594C76.6843 23.359 76.7035 23.4713 76.6891 23.5819Z" fill="white"/>
<path d="M6.24738 28.8005C6.57969 29.0877 7.13796 29.4211 7.33402 29.8172C7.53008 30.2133 7.16454 30.4542 6.79236 30.4278C6.02474 30.3684 5.88849 29.3055 6.24738 28.8005Z" fill="white"/>
<path d="M56.5116 88.0606C56.6733 87.9122 56.8685 87.8048 57.0808 87.7473C57.2931 87.6899 57.5162 87.6841 57.7312 87.7305C58.0303 87.8361 58.3659 88.1365 58.2031 88.46C58.0995 88.6034 57.9541 88.7119 57.7866 88.7709C57.6191 88.8299 57.4374 88.8366 57.266 88.79C56.9137 88.7075 56.6977 88.3444 56.5116 88.0606Z" fill="white"/>
<path d="M63.5166 9.05485C63.9453 9.16048 64.9555 9.38493 64.2211 9.95268C63.613 10.4082 63.1112 9.87016 62.7157 9.45425C62.7789 9.41464 63.5199 9.04825 63.5166 9.05485Z" fill="white"/>
<path d="M101.735 58.7557C101.534 58.749 101.338 58.693 101.164 58.5928C100.99 58.4926 100.844 58.3513 100.738 58.1813C100.525 57.8512 100.555 57.3495 101.07 57.3363C101.403 57.3363 101.735 57.6664 101.881 57.9338C102.087 58.3067 102.017 58.4718 101.735 58.7557Z" fill="white"/>
<path d="M72.9673 22.1427C73.2165 21.7895 73.2996 21.4825 73.7283 21.7862C73.8638 21.8812 73.976 22.0053 74.0565 22.1493C74.1371 22.2934 74.1839 22.4536 74.1935 22.618C74.2002 22.7037 74.2002 22.7898 74.1935 22.8755C74.2467 23.0405 74.1935 23.0933 74.0373 23.0405C73.8919 23.072 73.7407 23.0652 73.5987 23.0207C73.2597 22.8953 73.1268 22.4134 72.9673 22.1427Z" fill="white"/>
<path d="M59.4824 93.1802C59.1003 93.4838 57.6315 94.3751 57.8209 93.2858C57.8741 92.9722 58.13 92.553 58.4855 92.5662C58.8411 92.5794 59.2332 93.0085 59.4824 93.1802Z" fill="white"/>
<path d="M57.3258 90.896C57.0666 90.7375 56.5847 90.5857 56.4651 90.2787C56.2956 89.8562 56.608 89.6978 56.9636 89.6846C57.1354 89.6561 57.3118 89.6781 57.4712 89.7479C57.6306 89.8177 57.766 89.9322 57.8608 90.0774C58.0602 90.4933 57.6016 90.6649 57.3258 90.896Z" fill="white"/>
<path d="M42.6313 16.4388C42.4457 16.446 42.2621 16.3981 42.104 16.301C41.9459 16.204 41.8206 16.0624 41.7441 15.8942C41.6311 15.5938 41.6942 15.1845 42.0764 15.1548C42.2364 15.1687 42.391 15.2192 42.5282 15.3022C42.6654 15.3852 42.7814 15.4986 42.8673 15.6334C43.1298 16.0097 42.9071 16.1484 42.6313 16.4388Z" fill="white"/>
<path d="M11.3217 78.3066C11.2618 78.3957 11.0857 78.7753 10.9894 78.7984C10.893 78.8215 10.5607 78.5871 10.4942 78.5508C10.2616 78.432 9.74654 78.2207 9.79639 77.8676C9.83627 77.5837 10.358 77.5771 10.6072 77.653C10.7725 77.6924 10.9249 77.7731 11.05 77.8875C11.175 78.0019 11.2686 78.1461 11.3217 78.3066Z" fill="white"/>
<path d="M6.97845 27.358C7.25759 27.599 7.81254 27.8928 7.97536 28.2361C8.0365 28.391 8.0365 28.5631 7.97536 28.718C8.0086 28.8632 7.94878 28.9028 7.80257 28.8401C7.7209 28.85 7.63833 28.85 7.55666 28.8401C6.81563 28.6124 6.7259 27.9687 6.97845 27.358Z" fill="white"/>
<path d="M23.7066 93.6786C23.5006 93.5003 22.8725 93.1604 22.8393 92.8435C22.8061 92.5266 23.2879 92.4375 23.5272 92.4804C23.7664 92.5233 24.1918 92.7148 24.2582 92.992C24.348 93.3254 23.9259 93.4904 23.7066 93.6786Z" fill="white"/>
<path d="M17.446 31.8703C17.6687 32.1707 17.8315 32.2598 17.7783 32.6526C17.7484 32.9827 17.6421 33.3491 17.2765 33.4217C16.3727 33.6164 16.9476 32.0188 17.446 31.8703Z" fill="white"/>
<path d="M85.5051 18.0463C85.2559 17.7163 85.1994 17.5842 85.4819 17.2508C85.6314 17.0693 85.8906 16.8316 86.1465 16.8613C86.2181 16.873 86.2858 16.9014 86.3442 16.9441C86.4026 16.9868 86.4499 17.0427 86.4824 17.1071C86.5148 17.1716 86.5314 17.2427 86.5308 17.3147C86.5301 17.3868 86.5123 17.4576 86.4788 17.5215C86.378 17.687 86.2347 17.8228 86.0636 17.915C85.8925 18.0073 85.6997 18.0526 85.5051 18.0463Z" fill="white"/>
<path d="M10.0224 76.0785C9.80304 75.9861 8.1681 75.4744 8.82274 75.0585C9.00883 74.9364 9.81965 75.1674 9.98248 75.3193C10.0377 75.365 10.0827 75.4216 10.1149 75.4854C10.147 75.5492 10.1655 75.619 10.1693 75.6902C10.173 75.7615 10.1619 75.8328 10.1366 75.8996C10.1113 75.9664 10.0724 76.0273 10.0224 76.0785Z" fill="white"/>
<path d="M85.6082 86.5983C86.0335 86.5983 86.9008 87.407 86.3027 87.7338C86.0036 87.8955 85.5982 87.6447 85.4553 87.4037C85.2659 87.0571 85.4221 86.869 85.6082 86.5983Z" fill="white"/>
<path d="M19.7733 55.7983H17.1507V55.496L18.128 55.2895V48.3148L17.1507 48.1084V47.8061H19.5654C20.4182 47.8061 21.0903 47.9814 21.5819 48.332C22.0734 48.6843 22.3192 49.1668 22.3192 49.7796C22.3192 50.2645 22.1633 50.6766 21.8515 51.0158C21.5381 51.3549 21.1258 51.6048 20.6145 51.7653L22.9674 55.3387L23.7715 55.496V55.7983H22.3563L19.9192 52.0086H18.8578V55.2773L19.7733 55.496V55.7983ZM19.6496 48.2288H18.8578V51.5835H19.7238C20.2351 51.5835 20.6598 51.4278 20.998 51.1165C21.3344 50.8069 21.5027 50.4136 21.5027 49.9369C21.5027 49.4126 21.3361 48.9972 21.0029 48.6909C20.6697 48.3828 20.2186 48.2288 19.6496 48.2288Z" fill="white"/>
<path d="M27.8662 55.9187C27.2328 55.9187 26.6662 55.7671 26.1664 55.464C25.6667 55.1626 25.2741 54.7472 24.9887 54.218C24.705 53.6888 24.5632 53.0851 24.5632 52.4068C24.5632 51.7285 24.705 51.1231 24.9887 50.5906C25.2741 50.0581 25.6667 49.6403 26.1664 49.3372C26.6662 49.0341 27.2328 48.8825 27.8662 48.8825C28.5012 48.8825 29.0686 49.0341 29.5684 49.3372C30.0682 49.6403 30.4624 50.0581 30.751 50.5906C31.038 51.1231 31.1815 51.7285 31.1815 52.4068C31.1815 53.0851 31.038 53.6888 30.751 54.218C30.4624 54.7472 30.0682 55.1626 29.5684 55.464C29.0686 55.7671 28.5012 55.9187 27.8662 55.9187ZM28.0864 55.496C28.5663 55.496 28.9911 55.3829 29.3605 55.1568C29.73 54.9307 30.0162 54.6096 30.2191 54.1935C30.4219 53.7773 30.5234 53.2866 30.5234 52.7213C30.5234 52.0283 30.398 51.4254 30.1473 50.9125C29.895 50.3997 29.5552 50.0016 29.128 49.7181C28.7024 49.4363 28.2208 49.2954 27.6831 49.2954C27.1965 49.2954 26.766 49.4085 26.3916 49.6346C26.0172 49.8607 25.7244 50.1818 25.5133 50.598C25.3021 51.0125 25.1966 51.5024 25.1966 52.0676C25.1966 52.7623 25.3269 53.3661 25.5875 53.8789C25.8481 54.3917 26.1953 54.789 26.6291 55.0708C27.0645 55.3543 27.5503 55.496 28.0864 55.496Z" fill="white"/>
<path d="M36.6815 55.7983H34.1332V55.496L35.0832 55.3141V52.5763L32.8417 49.5019L32.0969 49.32V49.0177H34.3162V49.32L33.5963 49.465V49.5142L35.583 52.2126L37.352 49.5142V49.4773L36.6073 49.32V49.0177H38.6435V49.32L37.9235 49.465L35.729 52.6132V55.3141L36.6815 55.496V55.7983Z" fill="white"/>
<path d="M40.7391 55.7983H38.74V55.496L39.3264 55.3731L41.996 48.9563H42.2508L44.8957 55.3264L45.5661 55.496V55.7983H43.2998V55.496L44.1782 55.3485L43.3122 53.2424H40.6674L39.8261 55.3608L40.7391 55.496V55.7983ZM41.9836 49.9737L40.8257 52.8663H43.1662L41.9836 49.9737Z" fill="white"/>
<path d="M51.8084 55.7983H46.7612V55.496L47.5776 55.3141V49.5019L46.7612 49.32V49.0177H49.1883V49.32L48.2258 49.5019V55.3977H51.1008L51.5659 53.6184H51.8084V55.7983Z" fill="white"/>
<path d="M59.2333 55.7983H56.5018V55.496L57.4519 55.2895V48.3148L56.5018 48.1084V47.8061H59.2333V48.1084L58.1842 48.3148V51.463H62.7911V48.3148L61.7445 48.1084V47.8061H64.4735V48.1084L63.5234 48.3148V55.2895L64.4735 55.496V55.7983H61.7445V55.496L62.7911 55.2895V51.8858H58.1842V55.2895L59.2333 55.496V55.7983Z" fill="white"/>
<path d="M67.6676 55.7983H65.6685V55.496L66.2549 55.3731L68.9245 48.9563H69.1793L71.8242 55.3264L72.4947 55.496V55.7983H70.2283V55.496L71.1067 55.3485L70.2407 53.2424H67.5959L66.7547 55.3608L67.6676 55.496V55.7983ZM68.9121 49.9737L67.7542 52.8663H70.0947L68.9121 49.9737Z" fill="white"/>
<path d="M78.7369 55.7983H73.6897V55.496L74.5061 55.3141V49.5019L73.6897 49.32V49.0177H76.1168V49.32L75.1519 49.5019V55.3977H78.0293L78.4944 53.6184H78.7369V55.7983Z" fill="white"/>
<path d="M85.4294 55.7983H80.3822V55.496L81.1987 55.3141V49.5019L80.3822 49.32V49.0177H82.8093V49.32L81.8444 49.5019V55.3977H84.7219L85.1845 53.6184H85.4294V55.7983Z" fill="white"/>
</svg>
